<?xml version="1.0" encoding="UTF-8"?>
<svg id="Layer_1" data-name="Layer 1" xmlns="http://www.w3.org/2000/svg" xmlns:xlink="http://www.w3.org/1999/xlink" viewBox="0 0 2219.68 700.4">
  <defs>
    <style>
      .cls-1 {
        opacity: .33;
      }

      .cls-2 {
        opacity: .12;
      }

      .cls-3 {
        fill: #2552de;
      }

      .cls-4, .cls-5 {
        fill: #fff;
      }

      .cls-6 {
        fill: none;
      }

      .cls-7 {
        clip-path: url(#clippath-1);
      }

      .cls-8 {
        clip-path: url(#clippath-3);
      }

      .cls-5 {
        font-family: Poppins-ExtraLight, Poppins;
        font-size: 79.96px;
        font-weight: 200;
      }

      .cls-9 {
        clip-path: url(#clippath-2);
      }

      .cls-10 {
        clip-path: url(#clippath);
      }
    </style>
    <clipPath id="clippath">
      <rect class="cls-6" y="885.71" width="657.02" height="702.93" rx="151.06" ry="151.06"/>
    </clipPath>
    <clipPath id="clippath-1">
      <rect class="cls-6" y="886.98" width="657.02" height="700.4"/>
    </clipPath>
    <clipPath id="clippath-2">
      <rect class="cls-6" y="-1.27" width="657.02" height="702.93" rx="151.06" ry="151.06"/>
    </clipPath>
    <clipPath id="clippath-3">
      <rect class="cls-6" y="0" width="657.02" height="700.4"/>
    </clipPath>
  </defs>
  <g class="cls-10">
    <g class="cls-1">
      <g class="cls-7">
        <g class="cls-2">
          <path class="cls-4" d="M164.7,508.62c1.06-5.84,24.41-30.65,27.43-30.62,14.35,8.31,28.93,16.73,45.3,20.44-6.06,4.96-13.09,8.26-19.14,13.36-17.31,14.57-31.39,38.34-33.19,61.19-7.36,93.37,103.21,139.62,164.55,70.16l12.78-19.72c4.48,16.16,11.38,31.72,21.33,45.27-8.09,12.12-20.06,20.71-31.49,29.34,21.92,15.07,40.86,36.23,51.23,60.99,20.04,47.89-1.62,87.73,45.67,126.52l17.86,12.09c-16.38,3.83-30.86,12.15-45.3,20.41-19.76-15.05-35.47-37.32-43.36-61.18-15.44-46.68,3.25-83.82-45.39-119.15-75.42-54.78-175.29,22.82-142.06,108.89,26.81,69.44,119.97,80.3,163.13,20.32l8.39-13.91c4.21,16.53,12.12,31.56,21.09,45.89-55.24,71.21-171.77,65.34-218.8-11.45-1.96-.49-2.04.32-3.08,1.35-5.59,5.52-19.64,28.02-27.16,29.09-7.36-2.62-13.84-8.04-21.17-11.54-7.92-3.78-16.45-6.96-25.09-8.72l21.69-14.64c48.33-42.91,40.16-120.47-16.57-151.82-40.08-22.15-88.56-11.81-117.33,23.02-4.84,5.86-7.94,12.7-12.78,18.46-2.65-16.85-12.5-31.48-20.23-46.37,9.43-10.92,20.21-20.25,31.7-28.87-29.68-17.83-51.5-49.33-59.08-83.16-6.72-29.99.01-51.82-17.68-80.53-9.55-15.5-23.28-25.3-38.03-35.29,15.94-3.81,30.41-11.67,44.21-20.21,25.09,16.96,42.89,49.04,48.53,78.61,6.32,33.16-1.19,51.85,21,82.32,44.75,61.43,143.26,43.64,164.25-29.2,27.93-96.95-95.82-163.8-161.29-86.03-5.1,6.06-8.4,13.09-13.36,19.15-.79-7.42-4.34-15.67-7.44-22.54-2.64-5.84-11.4-18.15-12.49-22.07-.3-1.1-.48-1.4.09-2.54,1.94-3.89,20.05-19.47,24.54-22.76,56.3-41.34,135.45-32.6,182.18,18.88,3.92,4.32,7.77,11.51,11.54,15.24,1.05,1.04,1.12,1.84,3.08,1.35ZM164.7,522.65c-1.92.46-2.04-.27-3.1-1.34-4.59-4.63-9.56-15-14.71-21.01-44.71-52.21-121.27-60.81-176.47-19.52-4.38,3.28-18.56,13.98-17.21,19.22l13.17,23.9c36.47-49.33,110-56.15,153.76-12.15,86.39,86.86-30.71,226.04-131.3,152.98-56.09-40.74-29.63-86.77-54.36-138.24-7.25-15.08-18.26-28.21-30.59-39.34l-26.13,14.45c25.39,18.95,39.12,44.98,42.12,76.48.5,5.3-.54,11.23-.04,16.62,4.1,44.09,30.68,81.86,68.84,103.33-6.17,5.01-13.46,8.57-19.72,13.42-4.22,3.27-17.05,13.05-15.74,18.14.32,1.24,11.01,21.52,11.93,22.62,1.61,1.95,1.06,1.09,2.53.06,3.04-2.12,9.25-11.05,13.36-14.71,91.06-81.12,222.2,40.85,146.68,137.75-6.61,8.48-12.5,11.72-19.57,18.41-1.07,1.02-1.16.87-.82,2.64l26.16,12.47c4.54-4.57,9.87-8.8,14.03-13.71,4.87-5.75,9.65-15.88,14.09-20.35,1.05-1.06,1.17-1.8,3.1-1.34,39.71,78.24,152.27,91.89,209.08,24.68l-12.65-25.96c-1.76-.36-1.63-.26-2.64.81-7.21,7.65-10.59,13.78-19.88,20.65-79.96,59.18-187.96-19.48-156.05-113.96,27.67-81.95,142.38-91.69,183.91-15.5,16.6,30.45,8.75,57.35,18.58,88.57,6.69,21.25,20.36,41.43,36.87,56.3l25.96-12.65c.41-1.78-.26-2.1-1.24-3.2-3.58-4.07-10.44-8.45-14.72-13.34-30.9-35.33-19.53-58.86-29.06-98.49-8.65-35.95-33.84-64.26-64.65-83.28,12.81-8.71,25.62-17.44,35.56-29.52l-12.65-25.96c-1.76-.36-1.63-.26-2.64.81-6.67,7.08-9.91,13.04-18.41,19.57-96.77,74.3-217.37-54.71-138.33-145.98,4.08-4.71,12.64-10.42,15.31-14.03.82-1.11,1.7-1.36,1.23-3.21l-25.96-12.64c-11.15,10.09-20.84,22.14-27.63,35.58Z"/>
          <path class="cls-4" d="M-294.48,508.62c1.06-5.84,24.41-30.65,27.43-30.62,14.35,8.31,28.93,16.73,45.3,20.44-6.06,4.96-13.09,8.26-19.14,13.36-17.31,14.57-31.39,38.34-33.19,61.19-7.36,93.37,103.21,139.62,164.55,70.16l12.78-19.72c4.48,16.16,11.38,31.72,21.33,45.27-8.09,12.12-20.06,20.71-31.49,29.34,21.92,15.07,40.86,36.23,51.23,60.99,20.04,47.89-1.62,87.73,45.67,126.52l17.86,12.09c-16.38,3.83-30.86,12.15-45.3,20.41-19.76-15.05-35.47-37.32-43.36-61.18-15.44-46.68,3.25-83.82-45.39-119.15-75.42-54.78-175.29,22.82-142.06,108.89,26.81,69.44,119.97,80.3,163.13,20.32l8.39-13.91c4.21,16.53,12.12,31.56,21.09,45.89-55.24,71.21-171.77,65.34-218.8-11.45-1.96-.49-2.04.32-3.08,1.35-5.59,5.52-19.64,28.02-27.16,29.09-7.36-2.62-13.84-8.04-21.17-11.54-7.92-3.78-16.45-6.96-25.09-8.72l21.69-14.64c48.33-42.91,40.16-120.47-16.57-151.82-40.08-22.15-88.56-11.81-117.33,23.02-4.84,5.86-7.94,12.7-12.78,18.46-2.65-16.85-12.5-31.48-20.23-46.37,9.43-10.92,20.21-20.25,31.7-28.87-29.68-17.83-51.5-49.33-59.08-83.16-6.72-29.99.01-51.82-17.68-80.53-9.55-15.5-23.28-25.3-38.03-35.29,15.94-3.81,30.41-11.67,44.21-20.21,25.09,16.96,42.89,49.04,48.53,78.61,6.32,33.16-1.19,51.85,21,82.32,44.75,61.43,143.26,43.64,164.25-29.2,27.93-96.95-95.82-163.8-161.29-86.03-5.1,6.06-8.4,13.09-13.36,19.15-.79-7.42-4.34-15.67-7.44-22.54-2.64-5.84-11.4-18.15-12.49-22.07-.3-1.1-.48-1.4.09-2.54,1.94-3.89,20.05-19.47,24.54-22.76,56.3-41.34,135.45-32.6,182.18,18.88,3.92,4.32,7.77,11.51,11.54,15.24,1.05,1.04,1.12,1.84,3.08,1.35ZM-294.48,522.65c-1.92.46-2.04-.27-3.1-1.34-4.59-4.63-9.56-15-14.71-21.01-44.71-52.21-121.27-60.81-176.47-19.52-4.38,3.28-18.56,13.98-17.21,19.22l13.17,23.9c36.47-49.33,110-56.15,153.76-12.15,86.39,86.86-30.71,226.04-131.3,152.98-56.09-40.74-29.63-86.77-54.36-138.24-7.25-15.08-18.26-28.21-30.59-39.34l-26.13,14.45c25.39,18.95,39.12,44.98,42.12,76.48.5,5.3-.54,11.23-.04,16.62,4.1,44.09,30.68,81.86,68.84,103.33-6.17,5.01-13.46,8.57-19.72,13.42-4.22,3.27-17.05,13.05-15.74,18.14.32,1.24,11.01,21.52,11.93,22.62,1.61,1.95,1.06,1.09,2.53.06,3.04-2.12,9.25-11.05,13.36-14.71,91.06-81.12,222.2,40.85,146.68,137.75-6.61,8.48-12.5,11.72-19.57,18.41-1.07,1.02-1.16.87-.82,2.64l26.16,12.47c4.54-4.57,9.87-8.8,14.03-13.71,4.87-5.75,9.65-15.88,14.09-20.35,1.05-1.06,1.17-1.8,3.1-1.34,39.71,78.24,152.27,91.89,209.08,24.68l-12.65-25.96c-1.76-.36-1.63-.26-2.64.81-7.21,7.65-10.59,13.78-19.88,20.65-79.96,59.18-187.96-19.48-156.05-113.96,27.67-81.95,142.38-91.69,183.91-15.5,16.6,30.45,8.75,57.35,18.58,88.57,6.69,21.25,20.36,41.43,36.87,56.3l25.96-12.65c.41-1.78-.26-2.1-1.24-3.2-3.58-4.07-10.44-8.45-14.72-13.34-30.9-35.33-19.53-58.86-29.06-98.49-8.65-35.95-33.84-64.26-64.65-83.28,12.81-8.71,25.62-17.44,35.56-29.52l-12.65-25.96c-1.76-.36-1.63-.26-2.64.81-6.67,7.08-9.91,13.04-18.41,19.57-96.77,74.3-217.37-54.71-138.33-145.98,4.08-4.71,12.64-10.42,15.31-14.03.82-1.11,1.7-1.36,1.23-3.21l-25.96-12.64c-11.15,10.09-20.84,22.14-27.63,35.58Z"/>
          <path class="cls-4" d="M623.88,508.62c1.06-5.84,24.41-30.65,27.43-30.62,14.35,8.31,28.93,16.73,45.3,20.44-6.06,4.96-13.09,8.26-19.14,13.36-54.25,45.67-40.14,130.5,24.04,157.74.02,2.15,1.81,7.98-1.7,7.47-4.68-.68-17.12-8.65-21.45-11.73-48.29-34.37-56.26-103.47-17.42-148.32,4.08-4.71,12.64-10.42,15.31-14.03.82-1.11,1.7-1.36,1.23-3.21l-25.96-12.64c-11.73,9.24-18.79,22.17-27.27,33.98-.45.63-.21,2.57-2.23,1.6-1.2-.57-12.5-18.37-15.3-21.69-44.62-52.73-121.61-61.68-177.09-20.18-4.38,3.28-18.56,13.98-17.21,19.22l13.17,23.9c16.39-21.26,39.87-36.27,66.67-40.44,86.11-13.42,147.55,82.39,99.54,155.66-46.46,70.91-157.04,54.62-180.9-26.52-5.83-19.84-3.06-40.31-8.01-60.87-5.95-24.71-20.79-47.98-39.79-64.57l-26.13,14.45c25.39,18.95,39.12,44.98,42.12,76.48.5,5.3-.54,11.23-.04,16.62,4.1,44.09,30.67,81.86,68.84,103.33-6.17,5.01-13.46,8.57-19.72,13.42-4.22,3.27-17.05,13.05-15.74,18.14.32,1.24,11.01,21.52,11.93,22.62,1.61,1.95,1.06,1.09,2.53.06,3.04-2.11,9.25-11.05,13.36-14.71,96.23-85.74,229.37,53.39,139.72,146.09-3.66,3.78-9.04,6.68-12.61,10.07-1.07,1.02-1.16.87-.82,2.64l26.16,12.47c4.54-4.57,9.87-8.8,14.03-13.71,4.88-5.75,9.65-15.87,14.09-20.35,1.05-1.06,1.18-1.8,3.1-1.34,15.91,30.19,44.35,54.32,77.7,62.62l.12,8.8c-31.45-9.38-60.78-28.93-77.82-57.39-1.96-.49-2.04.32-3.08,1.35-5.59,5.52-19.64,28.02-27.16,29.09-7.36-2.62-13.84-8.04-21.17-11.54-7.92-3.78-16.45-6.96-25.09-8.72l21.69-14.64c47.74-42.29,40.45-118.92-14.93-150.91-40.24-23.24-89.7-13.33-118.97,22.11-4.84,5.86-7.94,12.7-12.78,18.46-2.65-16.85-12.5-31.48-20.23-46.37,9.43-10.92,20.21-20.25,31.7-28.87-35.91-21.63-58.43-61.08-62.48-102.71-.52-5.37.51-11.29.04-16.62-3.09-34.57-22.01-62.62-52.34-79.03,15.59-5.11,30.42-11.88,44.2-20.83,25.09,16.96,42.89,49.04,48.53,78.61,6.32,33.16-1.19,51.85,21,82.32,44.75,61.43,143.26,43.64,164.25-29.2,27.93-96.95-95.82-163.8-161.29-86.03-5.1,6.06-8.4,13.09-13.36,19.15-.79-7.42-4.34-15.67-7.44-22.54-2.64-5.84-11.4-18.15-12.49-22.07-.3-1.1-.48-1.4.09-2.54,1.94-3.89,20.05-19.47,24.54-22.76,56.3-41.34,135.45-32.6,182.18,18.88,3.92,4.32,7.77,11.51,11.54,15.24,1.05,1.04,1.12,1.84,3.08,1.35Z"/>
          <path class="cls-4" d="M149.42,354.29c-.43,16.28-4.47,32.84-12.1,47.22-7.05,13.29-16.13,21.96-26.83,31.9-.89.83-5.89,1.94-2.33,3.79l25.98,12.18c4.03-4.71,9.43-8.76,13.39-13.43,4.87-5.75,9.65-15.88,14.09-20.35,1.05-1.06,1.17-1.8,3.1-1.34,39.7,78.23,152.27,91.89,209.08,24.68l-12.54-25.18-2.61-.78c-55.06,78.9-182.21,37.54-181.15-58.69h7.67c-1.05,27.93,13.56,55.64,35.1,72.68,47.16,37.29,116.19,20.47,141.55-33.14,5.75,15.78,11.6,31.79,21.95,45.29-54.55,72-172.09,66.05-219.04-10.83-1.96-.49-2.04.32-3.08,1.35-5.34,5.28-21.15,30.72-29.11,29.03-3.72-.79-13.32-10.01-18.35-11.08l-25.96-10.37c32.37-13.49,53.15-48.2,53.55-82.93h7.67Z"/>
          <path class="cls-4" d="M608.6,354.29c-.54,25.68-10.78,51.69-28.67,70.19-3.66,3.78-9.04,6.68-12.61,10.07-1.07,1.02-1.16.87-.82,2.64l26.16,12.47c4.54-4.57,9.87-8.8,14.03-13.71,4.88-5.75,9.65-15.87,14.09-20.35,1.05-1.06,1.18-1.8,3.1-1.34,15.91,30.19,44.35,54.32,77.7,62.62l.12,8.8c-31.45-9.38-60.78-28.93-77.82-57.39-1.96-.49-2.04.32-3.08,1.35-5.59,5.52-19.64,28.02-27.16,29.09-7.36-2.62-13.84-8.04-21.17-11.54-7.92-3.78-16.45-6.96-25.09-8.72l21.69-14.64c19.69-17.51,31.56-43.11,31.87-69.54h7.67Z"/>
          <path class="cls-4" d="M621.37,753.52c-11.98-24.39-32.44-41.66-54.86-56.11,23.42-12.02,42.83-31.43,54.86-54.86,15.13,22.86,32.18,41.47,56.08,55.48-10.29,7.49-22.23,14.54-31.28,23.54-9.6,9.53-16.09,21.73-24.79,31.95ZM623.87,657.87c-1.78-.42-2.09.26-3.2,1.23-3.7,3.25-8.29,11.7-12.12,15.94-7.92,8.77-17.67,15.49-26.73,22.99,15.15,11.67,30.76,24.09,39.53,41.45,12.23-15.62,25.26-30.54,42.05-41.45-15.24-10.72-30.34-23.7-39.54-40.17Z"/>
          <path class="cls-4" d="M-80.17,354.29c-.44,35.96,16.07,72.96,43.76,95.5,6.66-5.7,16.47-8.18,23.49-12.3,1.07-.63,2.11.33,1.6-2.19-24.82-19.06-41.92-49.03-40.81-81.02h7.67c-1.33,28.59,13.88,54.72,35.1,72.68l17.18,11.49c-15.48,4.07-30.17,10.77-43.33,19.91-1.99,1.05-2.89.3-4.53-.68-2.26-1.35-14.18-13.86-16.55-16.65-19.95-23.56-31.5-55.83-31.24-86.76h7.67Z"/>
          <path class="cls-4" d="M379.01,354.29c-.44,35.96,16.07,72.96,43.76,95.5,6.66-5.7,16.47-8.18,23.49-12.3,1.07-.63,2.11.33,1.6-2.19-24.82-19.06-41.92-49.03-40.81-81.02h7.67c-1.33,28.59,13.88,54.72,35.1,72.68l17.18,11.49c-15.48,4.07-30.17,10.77-43.33,19.91-1.99,1.05-2.89.3-4.53-.68-2.26-1.35-14.18-13.86-16.55-16.65-19.95-23.56-31.5-55.83-31.24-86.76h7.67Z"/>
          <path class="cls-4" d="M588.3,583.29c0,44.61-36.17,80.78-80.78,80.78s-80.78-36.17-80.78-80.78,36.17-80.78,80.78-80.78,80.78,36.17,80.78,80.78ZM584.61,583.3c0-42.57-34.51-77.08-77.08-77.08s-77.08,34.51-77.08,77.08,34.51,77.08,77.08,77.08,77.08-34.51,77.08-77.08Z"/>
          <path class="cls-4" d="M358.71,583.29c0,44.61-36.17,80.78-80.78,80.78s-80.78-36.17-80.78-80.78,36.17-80.78,80.78-80.78,80.78,36.17,80.78,80.78ZM355.02,583.3c0-42.57-34.51-77.08-77.08-77.08s-77.08,34.51-77.08,77.08,34.51,77.08,77.08,77.08,77.08-34.51,77.08-77.08Z"/>
          <path class="cls-4" d="M129.12,583.29c0,44.61-36.17,80.78-80.78,80.78s-80.78-36.17-80.78-80.78S3.72,502.51,48.34,502.51s80.78,36.17,80.78,80.78ZM125.43,583.3c0-42.57-34.51-77.08-77.08-77.08s-77.08,34.51-77.08,77.08,34.51,77.08,77.08,77.08,77.08-34.51,77.08-77.08Z"/>
          <path class="cls-4" d="M430.01,354.29c2.09,52.38,50.53,88.45,101.43,72.73,30.57-9.44,53.67-40.52,52.92-72.73h3.82c-.89,65.27-73.67,103.26-127.95,64.82-21.41-15.16-32.07-38.27-34.06-64.16l3.84-.66Z"/>
          <path class="cls-4" d="M200.42,354.29c2.09,52.38,50.53,88.45,101.43,72.73,30.57-9.44,53.67-40.52,52.92-72.73h3.82c-.89,65.27-73.67,103.26-127.95,64.82-21.41-15.16-32.07-38.27-34.06-64.16l3.84-.66Z"/>
          <path class="cls-4" d="M-29.17,354.29c2.09,52.38,50.53,88.45,101.43,72.73,30.57-9.44,53.67-40.52,52.92-72.73h3.82c-.89,65.27-73.67,103.26-127.95,64.82-21.41-15.16-32.07-38.27-34.06-64.16l3.84-.66Z"/>
          <path class="cls-4" d="M644.31,354.29c-1.19,36.92,23.56,71.77,57.18,85.67l.2,7.45c-38.38-12.32-66.34-52.52-65.05-93.11h7.67Z"/>
          <path class="cls-4" d="M-13.86,354.29c-1.04,39.53,37.23,69.14,75.55,60.88,27.9-6.02,49.52-32.23,49.46-60.88,2.28.2,3.89-1.31,3.87,1.93-.18,25.01-20.01,51.67-43.44,59.92-43.89,15.45-89.08-15.41-89.25-61.84h3.82Z"/>
          <path class="cls-4" d="M215.73,354.29c-1.04,39.53,37.23,69.14,75.55,60.88,27.9-6.02,49.52-32.23,49.46-60.88,2.28.2,3.89-1.31,3.87,1.93-.18,25.01-20.01,51.67-43.44,59.92-43.89,15.45-89.08-15.41-89.25-61.84h3.82Z"/>
          <path class="cls-4" d="M445.32,354.29c-1.04,39.53,37.23,69.14,75.55,60.88,27.9-6.02,49.52-32.23,49.46-60.88,2.28.2,3.89-1.31,3.87,1.93-.18,25.01-20.01,51.67-43.44,59.92-43.89,15.45-89.08-15.41-89.25-61.84h3.82Z"/>
          <path class="cls-4" d="M701.7,511.19c.41,2.92.06,3.27-2.09,4.91-5.25,3.99-12.19,7.47-17.03,12.31-30.16,30.14-29.85,80.53.59,110.36,4.86,4.76,13.54,8.58,17.23,12.11,1.25,1.2,2.38,3.34.65,4.45-15.58-7.32-29.02-20.69-36.56-36.14-19.26-39.42-3.1-89.86,37.21-108Z"/>
          <path class="cls-4" d="M459.36,354.28c2.99,63.44,92.79,62.78,96.95,0l3.84.66c-5.56,67.34-101,67.38-104.6-.66h3.82Z"/>
          <path class="cls-4" d="M229.76,354.28c2.99,63.44,92.79,62.78,96.95,0l3.84.66c-5.56,67.34-101,67.38-104.6-.66h3.82Z"/>
          <path class="cls-4" d="M.17,354.28c2.99,63.44,92.79,62.78,96.95,0l3.84.66c-5.56,67.34-101,67.38-104.6-.66H.17Z"/>
          <path class="cls-4" d="M376.63,466.7l15.76-15.44,17.2,17.2-17.2,17.2c-3.24-4.02-6.5-7.84-10.17-11.49-2.5-2.49-6.95-3.19-5.6-7.45ZM392.34,462.63l-5.81,5.83,5.83,5.82,5.81-5.83-5.83-5.82Z"/>
          <path class="cls-4" d="M606.22,466.7l15.76-15.46,17.2,17.21-17.2,17.2c-2.91-4.3-6.49-7.87-10.16-11.49-2.51-2.48-6.94-3.21-5.6-7.45ZM621.93,462.63l-5.81,5.83,5.83,5.82,5.81-5.83-5.83-5.82Z"/>
          <path class="cls-4" d="M147.04,466.7l15.76-15.46,17.2,17.21-17.2,17.2c-2.91-4.3-6.49-7.87-10.16-11.49-2.51-2.48-6.94-3.21-5.6-7.45ZM162.75,462.63l-5.81,5.83,5.83,5.82,5.81-5.83-5.83-5.82Z"/>
          <path class="cls-4" d="M376.7,699.75v-3.43l15.69-15.48,17.2,17.2-17.2,17.2-15.69-15.48ZM392.34,692.22l-5.81,5.83,5.83,5.82,5.81-5.83-5.83-5.82Z"/>
          <path class="cls-4" d="M701.7,527.77c.46,5.91-6.1,7.58-9.59,11.44-22,24.32-24.28,61.14-1.84,86.09,3.84,4.27,12.33,7.93,10.79,13.45-35.56-22.03-40.3-73.09-10.87-102.73,1.07-1.08,10.62-9.25,11.51-8.24Z"/>
          <path class="cls-4" d="M34.48,354.44c.84,13.58,18.27,17.73,25.47,6.69,2.93-4.49,1.03-9.34,10.4-6.18-3.45,26.91-41.72,26.88-43.39-.65l7.52.14Z"/>
          <path class="cls-4" d="M264.07,354.44c.84,13.58,18.27,17.73,25.47,6.69,2.93-4.49,1.03-9.34,10.4-6.18-3.45,26.91-41.72,26.88-43.39-.65l7.52.14Z"/>
          <path class="cls-4" d="M493.66,354.44c.84,13.58,18.27,17.73,25.47,6.69,2.93-4.49,1.03-9.34,10.4-6.18-3.45,26.91-41.72,26.88-43.39-.65l7.52.14Z"/>
          <path class="cls-4" d="M243.79,354.29c2.61,44.44,65.96,43.94,67.61,0h3.82c-.71,46.48-67.73,50.37-74.93,4.15-.66-4.22-1.15-4.57,3.5-4.14Z"/>
          <path class="cls-4" d="M473.38,354.29c2.61,44.44,65.96,43.94,67.61,0h3.82c-.71,46.48-67.73,50.37-74.93,4.15-.66-4.22-1.15-4.57,3.5-4.14Z"/>
          <path class="cls-4" d="M14.2,354.29c2.61,44.44,65.96,43.94,67.61,0h3.82c-.71,46.48-67.73,50.37-74.93,4.15-.66-4.22-1.15-4.57,3.5-4.14Z"/>
          <path class="cls-4" d="M659.6,354.29c1.22,25.38,12.14,46.34,32.01,61.75,3.74,2.9,10.85,4.3,10.08,9.67-28.3-12.08-44.27-41.38-45.91-71.41h3.81Z"/>
          <path class="cls-4" d="M701.69,620.87c-22.2-18.51-22.09-56.65,0-75.25,1,6.5-4.77,9.8-7.41,14.89-7.39,14.25-7.24,31.23,0,45.47,2.48,4.88,8.14,8.85,7.42,14.89Z"/>
          <path class="cls-4" d="M674.91,354.29c-.89,14.64,5.61,30.59,15.35,41.42,4.15,4.61,11.29,7.3,11.43,13.43-.85.93-7.12-4.19-8.25-5.13-13.35-11.08-23.3-32.29-22.35-49.72h3.82Z"/>
          <path class="cls-4" d="M688.95,354.28c-.56,7.6,1.94,15.44,5.33,22.11,2.48,4.88,8.14,8.85,7.42,14.89-10.75-8.48-16.52-23.43-16.56-36.99h3.82Z"/>
          <polygon class="cls-4" points="701.7 594.09 699.04 583.24 701.7 572.4 701.7 594.09"/>
          <path class="cls-4" d="M701.7,354.3l-1.26,10.19c.85-2.86-4.26-11.08,1.26-10.19Z"/>
          <path class="cls-4" d="M162.19,753.52c-11.98-24.39-32.44-41.66-54.86-56.11,23.42-12.02,42.83-31.43,54.86-54.86,15.13,22.86,32.18,41.47,56.08,55.48-10.29,7.49-22.23,14.54-31.28,23.54-9.6,9.53-16.09,21.73-24.79,31.95ZM164.69,657.87c-1.78-.42-2.09.26-3.2,1.23-3.7,3.25-8.29,11.7-12.12,15.94-7.92,8.77-17.67,15.49-26.73,22.99,15.15,11.67,30.76,24.09,39.53,41.45,12.23-15.62,25.26-30.54,42.05-41.45-15.24-10.72-30.34-23.7-39.54-40.17Z"/>
          <path class="cls-4" d="M621.99,680.84l17.2,17.2-17.2,17.2-17.19-17.19c6.28-5.4,12.38-10.34,17.19-17.2ZM621.99,692.26l-5.78,5.78,5.78,5.78,5.78-5.78-5.78-5.78Z"/>
          <path class="cls-4" d="M573.92,583.31c0,36.67-29.73,66.39-66.39,66.39s-66.39-29.73-66.39-66.39,29.73-66.39,66.39-66.39,66.39,29.73,66.39,66.39ZM570.27,583.29c0-34.65-28.09-62.73-62.73-62.73s-62.73,28.09-62.73,62.73,28.09,62.73,62.73,62.73,62.73-28.09,62.73-62.73Z"/>
          <path class="cls-4" d="M344.33,583.31c0,36.67-29.73,66.39-66.39,66.39s-66.39-29.73-66.39-66.39,29.73-66.39,66.39-66.39,66.39,29.73,66.39,66.39ZM340.68,583.29c0-34.65-28.09-62.73-62.73-62.73s-62.73,28.09-62.73,62.73,28.09,62.73,62.73,62.73,62.73-28.09,62.73-62.73Z"/>
          <path class="cls-4" d="M114.74,583.31c0,36.67-29.73,66.39-66.39,66.39s-66.39-29.73-66.39-66.39,29.73-66.39,66.39-66.39,66.39,29.73,66.39,66.39ZM111.09,583.29c0-34.65-28.09-62.73-62.73-62.73s-62.73,28.09-62.73,62.73,28.09,62.73,62.73,62.73,62.73-28.09,62.73-62.73Z"/>
          <path class="cls-4" d="M162.81,680.84l17.2,17.2-17.2,17.2-17.19-17.19c6.28-5.4,12.38-10.34,17.19-17.2ZM162.81,692.26l-5.78,5.78,5.78,5.78,5.78-5.78-5.78-5.78Z"/>
          <path class="cls-4" d="M559.55,583.31c0,28.75-23.31,52.06-52.06,52.06s-52.06-23.31-52.06-52.06,23.31-52.06,52.06-52.06,52.06,23.31,52.06,52.06ZM555.86,583.31c0-26.69-21.64-48.33-48.33-48.33s-48.33,21.64-48.33,48.33,21.64,48.33,48.33,48.33,48.33-21.64,48.33-48.33Z"/>
          <path class="cls-4" d="M329.96,583.31c0,28.75-23.31,52.06-52.06,52.06s-52.06-23.31-52.06-52.06,23.31-52.06,52.06-52.06,52.06,23.31,52.06,52.06ZM326.27,583.31c0-26.69-21.64-48.33-48.33-48.33s-48.33,21.64-48.33,48.33,21.64,48.33,48.33,48.33,48.33-21.64,48.33-48.33Z"/>
          <path class="cls-4" d="M100.37,583.31c0,28.75-23.31,52.06-52.06,52.06s-52.06-23.31-52.06-52.06,23.31-52.06,52.06-52.06,52.06,23.31,52.06,52.06ZM96.68,583.31c0-26.69-21.64-48.33-48.33-48.33S.02,556.62.02,583.31s21.64,48.33,48.33,48.33,48.33-21.64,48.33-48.33Z"/>
          <path class="cls-4" d="M545.24,583.29c0,20.84-16.89,37.73-37.73,37.73s-37.73-16.89-37.73-37.73,16.89-37.73,37.73-37.73,37.73,16.89,37.73,37.73ZM541.39,583.29c0-18.76-15.21-33.97-33.97-33.97s-33.97,15.21-33.97,33.97,15.21,33.97,33.97,33.97,33.97-15.21,33.97-33.97Z"/>
          <path class="cls-4" d="M315.65,583.29c0,20.84-16.89,37.73-37.73,37.73s-37.73-16.89-37.73-37.73,16.89-37.73,37.73-37.73,37.73,16.89,37.73,37.73ZM311.8,583.29c0-18.76-15.21-33.97-33.97-33.97s-33.97,15.21-33.97,33.97,15.21,33.97,33.97,33.97,33.97-15.21,33.97-33.97Z"/>
          <path class="cls-4" d="M86.06,583.29c0,20.84-16.89,37.73-37.73,37.73s-37.73-16.89-37.73-37.73,16.89-37.73,37.73-37.73,37.73,16.89,37.73,37.73ZM82.21,583.29c0-18.76-15.21-33.97-33.97-33.97s-33.97,15.21-33.97,33.97,15.21,33.97,33.97,33.97,33.97-15.21,33.97-33.97Z"/>
          <path class="cls-4" d="M529.12,583.31c0,11.91-9.66,21.57-21.57,21.57s-21.57-9.66-21.57-21.57,9.66-21.57,21.57-21.57,21.57,9.66,21.57,21.57ZM521.35,583.34c0-7.62-6.18-13.8-13.8-13.8s-13.8,6.18-13.8,13.8,6.18,13.8,13.8,13.8,13.8-6.18,13.8-13.8Z"/>
          <path class="cls-4" d="M299.53,583.31c0,11.91-9.66,21.57-21.57,21.57s-21.57-9.66-21.57-21.57,9.66-21.57,21.57-21.57,21.57,9.66,21.57,21.57ZM291.76,583.34c0-7.62-6.18-13.8-13.8-13.8s-13.8,6.18-13.8,13.8,6.18,13.8,13.8,13.8,13.8-6.18,13.8-13.8Z"/>
          <path class="cls-4" d="M69.94,583.31c0,11.91-9.66,21.57-21.57,21.57s-21.57-9.66-21.57-21.57,9.66-21.57,21.57-21.57,21.57,9.66,21.57,21.57ZM62.17,583.34c0-7.62-6.18-13.8-13.8-13.8s-13.8,6.18-13.8,13.8,6.18,13.8,13.8,13.8,13.8-6.18,13.8-13.8Z"/>
        </g>
      </g>
    </g>
  </g>
  <g class="cls-9">
    <rect class="cls-3" y="0" width="657.02" height="700.4"/>
    <g class="cls-1">
      <g class="cls-8">
        <g class="cls-2">
          <path class="cls-4" d="M164.7,80.82c1.06-5.84,24.41-30.65,27.43-30.62,14.35,8.31,28.93,16.73,45.3,20.44-6.06,4.96-13.09,8.26-19.14,13.36-17.31,14.57-31.39,38.34-33.19,61.19-7.36,93.37,103.21,139.62,164.55,70.16l12.78-19.72c4.48,16.16,11.38,31.72,21.33,45.27-8.09,12.12-20.06,20.71-31.49,29.34,21.92,15.07,40.86,36.23,51.23,60.99,20.04,47.89-1.62,87.73,45.67,126.52l17.86,12.09c-16.38,3.83-30.86,12.15-45.3,20.41-19.76-15.05-35.47-37.32-43.36-61.18-15.44-46.68,3.25-83.82-45.39-119.15-75.42-54.78-175.29,22.82-142.06,108.89,26.81,69.44,119.97,80.3,163.13,20.32l8.39-13.91c4.21,16.53,12.12,31.56,21.09,45.89-55.24,71.21-171.77,65.34-218.8-11.45-1.96-.49-2.04.32-3.08,1.35-5.59,5.52-19.64,28.02-27.16,29.09-7.36-2.62-13.84-8.04-21.17-11.54-7.92-3.78-16.45-6.96-25.09-8.72l21.69-14.64c48.33-42.91,40.16-120.47-16.57-151.82-40.08-22.15-88.56-11.81-117.33,23.02-4.84,5.86-7.94,12.7-12.78,18.46-2.65-16.85-12.5-31.48-20.23-46.37,9.43-10.92,20.21-20.25,31.7-28.87-29.68-17.83-51.5-49.33-59.08-83.16-6.72-29.99.01-51.82-17.68-80.53-9.55-15.5-23.28-25.3-38.03-35.29,15.94-3.81,30.41-11.67,44.21-20.21,25.09,16.96,42.89,49.04,48.53,78.61,6.32,33.16-1.19,51.85,21,82.32,44.75,61.43,143.26,43.64,164.25-29.2C165.79,85.21,42.03,18.35-23.43,96.12c-5.1,6.06-8.4,13.09-13.36,19.15-.79-7.42-4.34-15.67-7.44-22.54-2.64-5.84-11.4-18.15-12.49-22.07-.3-1.1-.48-1.4.09-2.54,1.94-3.89,20.05-19.47,24.54-22.76C24.19,4.01,103.34,12.75,150.07,64.23c3.92,4.32,7.77,11.51,11.54,15.24,1.05,1.04,1.12,1.84,3.08,1.35ZM164.7,94.85c-1.92.46-2.04-.27-3.1-1.34-4.59-4.63-9.56-15-14.71-21.01C102.18,20.29,25.62,11.69-29.58,52.98c-4.38,3.28-18.56,13.98-17.21,19.22l13.17,23.9C2.85,46.78,76.38,39.96,120.14,83.96c86.39,86.86-30.71,226.04-131.3,152.98-56.09-40.74-29.63-86.77-54.36-138.24-7.25-15.08-18.26-28.21-30.59-39.34l-26.13,14.45c25.39,18.95,39.12,44.98,42.12,76.48.5,5.3-.54,11.23-.04,16.62,4.1,44.09,30.68,81.86,68.84,103.33-6.17,5.01-13.46,8.57-19.72,13.42-4.22,3.27-17.05,13.05-15.74,18.14.32,1.24,11.01,21.52,11.93,22.62,1.61,1.95,1.06,1.09,2.53.06,3.04-2.12,9.25-11.05,13.36-14.71,91.06-81.12,222.2,40.85,146.68,137.75-6.61,8.48-12.5,11.72-19.57,18.41-1.07,1.02-1.16.87-.82,2.64l26.16,12.47c4.54-4.57,9.87-8.8,14.03-13.71,4.87-5.75,9.65-15.88,14.09-20.35,1.05-1.06,1.17-1.8,3.1-1.34,39.71,78.24,152.27,91.89,209.08,24.68l-12.65-25.96c-1.76-.36-1.63-.26-2.64.81-7.21,7.65-10.59,13.78-19.88,20.65-79.96,59.18-187.96-19.48-156.05-113.96,27.67-81.95,142.38-91.69,183.91-15.5,16.6,30.45,8.75,57.35,18.58,88.57,6.69,21.25,20.36,41.43,36.87,56.3l25.96-12.65c.41-1.78-.26-2.1-1.24-3.2-3.58-4.07-10.44-8.45-14.72-13.34-30.9-35.33-19.53-58.86-29.06-98.49-8.65-35.95-33.84-64.26-64.65-83.28,12.81-8.71,25.62-17.44,35.56-29.52l-12.65-25.96c-1.76-.36-1.63-.26-2.64.81-6.67,7.08-9.91,13.04-18.41,19.57-96.77,74.3-217.37-54.71-138.33-145.98,4.08-4.71,12.64-10.42,15.31-14.03.82-1.11,1.7-1.36,1.23-3.21l-25.96-12.64c-11.15,10.09-20.84,22.14-27.63,35.58Z"/>
          <path class="cls-4" d="M-294.48,80.82c1.06-5.84,24.41-30.65,27.43-30.62,14.35,8.31,28.93,16.73,45.3,20.44-6.06,4.96-13.09,8.26-19.14,13.36-17.31,14.57-31.39,38.34-33.19,61.19-7.36,93.37,103.21,139.62,164.55,70.16l12.78-19.72c4.48,16.16,11.38,31.72,21.33,45.27-8.09,12.12-20.06,20.71-31.49,29.34,21.92,15.07,40.86,36.23,51.23,60.99,20.04,47.89-1.62,87.73,45.67,126.52l17.86,12.09c-16.38,3.83-30.86,12.15-45.3,20.41-19.76-15.05-35.47-37.32-43.36-61.18-15.44-46.68,3.25-83.82-45.39-119.15-75.42-54.78-175.29,22.82-142.06,108.89,26.81,69.44,119.97,80.3,163.13,20.32l8.39-13.91c4.21,16.53,12.12,31.56,21.09,45.89-55.24,71.21-171.77,65.34-218.8-11.45-1.96-.49-2.04.32-3.08,1.35-5.59,5.52-19.64,28.02-27.16,29.09-7.36-2.62-13.84-8.04-21.17-11.54-7.92-3.78-16.45-6.96-25.09-8.72l21.69-14.64c48.33-42.91,40.16-120.47-16.57-151.82-40.08-22.15-88.56-11.81-117.33,23.02-4.84,5.86-7.94,12.7-12.78,18.46-2.65-16.85-12.5-31.48-20.23-46.37,9.43-10.92,20.21-20.25,31.7-28.87-29.68-17.83-51.5-49.33-59.08-83.16-6.72-29.99.01-51.82-17.68-80.53-9.55-15.5-23.28-25.3-38.03-35.29,15.94-3.81,30.41-11.67,44.21-20.21,25.09,16.96,42.89,49.04,48.53,78.61,6.32,33.16-1.19,51.85,21,82.32,44.75,61.43,143.26,43.64,164.25-29.2,27.93-96.95-95.82-163.8-161.29-86.03-5.1,6.06-8.4,13.09-13.36,19.15-.79-7.42-4.34-15.67-7.44-22.54-2.64-5.84-11.4-18.15-12.49-22.07-.3-1.1-.48-1.4.09-2.54,1.94-3.89,20.05-19.47,24.54-22.76,56.3-41.34,135.45-32.6,182.18,18.88,3.92,4.32,7.77,11.51,11.54,15.24,1.05,1.04,1.12,1.84,3.08,1.35ZM-294.48,94.85c-1.92.46-2.04-.27-3.1-1.34-4.59-4.63-9.56-15-14.71-21.01-44.71-52.21-121.27-60.81-176.47-19.52-4.38,3.28-18.56,13.98-17.21,19.22l13.17,23.9c36.47-49.33,110-56.15,153.76-12.15,86.39,86.86-30.71,226.04-131.3,152.98-56.09-40.74-29.63-86.77-54.36-138.24-7.25-15.08-18.26-28.21-30.59-39.34l-26.13,14.45c25.39,18.95,39.12,44.98,42.12,76.48.5,5.3-.54,11.23-.04,16.62,4.1,44.09,30.68,81.86,68.84,103.33-6.17,5.01-13.46,8.57-19.72,13.42-4.22,3.27-17.05,13.05-15.74,18.14.32,1.24,11.01,21.52,11.93,22.62,1.61,1.95,1.06,1.09,2.53.06,3.04-2.12,9.25-11.05,13.36-14.71,91.06-81.12,222.2,40.85,146.68,137.75-6.61,8.48-12.5,11.72-19.57,18.41-1.07,1.02-1.16.87-.82,2.64l26.16,12.47c4.54-4.57,9.87-8.8,14.03-13.71,4.87-5.75,9.65-15.88,14.09-20.35,1.05-1.06,1.17-1.8,3.1-1.34,39.71,78.24,152.27,91.89,209.08,24.68l-12.65-25.96c-1.76-.36-1.63-.26-2.64.81-7.21,7.65-10.59,13.78-19.88,20.65-79.96,59.18-187.96-19.48-156.05-113.96,27.67-81.95,142.38-91.69,183.91-15.5,16.6,30.45,8.75,57.35,18.58,88.57,6.69,21.25,20.36,41.43,36.87,56.3l25.96-12.65c.41-1.78-.26-2.1-1.24-3.2-3.58-4.07-10.44-8.45-14.72-13.34-30.9-35.33-19.53-58.86-29.06-98.49-8.65-35.95-33.84-64.26-64.65-83.28,12.81-8.71,25.62-17.44,35.56-29.52l-12.65-25.96c-1.76-.36-1.63-.26-2.64.81-6.67,7.08-9.91,13.04-18.41,19.57-96.77,74.3-217.37-54.71-138.33-145.98,4.08-4.71,12.64-10.42,15.31-14.03.82-1.11,1.7-1.36,1.23-3.21l-25.96-12.64c-11.15,10.09-20.84,22.14-27.63,35.58Z"/>
          <path class="cls-4" d="M164.7,540c1.06-5.84,24.41-30.65,27.43-30.62,14.35,8.31,28.93,16.73,45.3,20.44-6.06,4.96-13.09,8.26-19.14,13.36-17.31,14.57-31.39,38.34-33.19,61.19-7.36,93.37,103.21,139.62,164.55,70.16l12.78-19.72c4.48,16.16,11.38,31.72,21.33,45.27-8.09,12.12-20.06,20.71-31.49,29.34,21.92,15.07,40.86,36.23,51.23,60.99,20.04,47.89-1.62,87.73,45.67,126.52l17.86,12.09c-16.38,3.83-30.86,12.15-45.3,20.41-19.76-15.05-35.47-37.32-43.36-61.18-15.44-46.68,3.25-83.82-45.39-119.15-75.42-54.78-175.29,22.82-142.06,108.89,26.81,69.44,119.97,80.3,163.13,20.32l8.39-13.91c4.21,16.53,12.12,31.56,21.09,45.89-55.24,71.21-171.77,65.34-218.8-11.45-1.96-.49-2.04.32-3.08,1.35-5.59,5.52-19.64,28.02-27.16,29.09-7.36-2.62-13.84-8.04-21.17-11.54-7.92-3.78-16.45-6.96-25.09-8.72l21.69-14.64c48.33-42.91,40.16-120.47-16.57-151.82-40.08-22.15-88.56-11.81-117.33,23.02-4.84,5.86-7.94,12.7-12.78,18.46-2.65-16.85-12.5-31.48-20.23-46.37,9.43-10.92,20.21-20.25,31.7-28.87-29.68-17.83-51.5-49.33-59.08-83.16-6.72-29.99.01-51.82-17.68-80.53-9.55-15.5-23.28-25.3-38.03-35.29,15.94-3.81,30.41-11.67,44.21-20.21,25.09,16.96,42.89,49.04,48.53,78.61,6.32,33.16-1.19,51.85,21,82.32,44.75,61.43,143.26,43.64,164.25-29.2,27.93-96.95-95.82-163.8-161.29-86.03-5.1,6.06-8.4,13.09-13.36,19.15-.79-7.42-4.34-15.67-7.44-22.54-2.64-5.84-11.4-18.15-12.49-22.07-.3-1.1-.48-1.4.09-2.54,1.94-3.89,20.05-19.47,24.54-22.76,56.3-41.34,135.45-32.6,182.18,18.88,3.92,4.32,7.77,11.51,11.54,15.24,1.05,1.04,1.12,1.84,3.08,1.35ZM164.7,554.03c-1.92.46-2.04-.27-3.1-1.34-4.59-4.63-9.56-15-14.71-21.01-44.71-52.21-121.27-60.81-176.47-19.52-4.38,3.28-18.56,13.98-17.21,19.22l13.17,23.9c36.47-49.33,110-56.15,153.76-12.15,86.39,86.86-30.71,226.04-131.3,152.98-56.09-40.74-29.63-86.77-54.36-138.24-7.25-15.08-18.26-28.21-30.59-39.34l-26.13,14.45c25.39,18.95,39.12,44.98,42.12,76.48.5,5.3-.54,11.23-.04,16.62,4.1,44.09,30.68,81.86,68.84,103.33-6.17,5.01-13.46,8.57-19.72,13.42-4.22,3.27-17.05,13.05-15.74,18.14.32,1.24,11.01,21.52,11.93,22.62,1.61,1.95,1.06,1.09,2.53.06,3.04-2.12,9.25-11.05,13.36-14.71,91.06-81.12,222.2,40.85,146.68,137.75-6.61,8.48-12.5,11.72-19.57,18.41-1.07,1.02-1.16.87-.82,2.64l26.16,12.47c4.54-4.57,9.87-8.8,14.03-13.71,4.87-5.75,9.65-15.88,14.09-20.35,1.05-1.06,1.17-1.8,3.1-1.34,39.71,78.24,152.27,91.89,209.08,24.68l-12.65-25.96c-1.76-.36-1.63-.26-2.64.81-7.21,7.65-10.59,13.78-19.88,20.65-79.96,59.18-187.96-19.48-156.05-113.96,27.67-81.95,142.38-91.69,183.91-15.5,16.6,30.45,8.75,57.35,18.58,88.57,6.69,21.25,20.36,41.43,36.87,56.3l25.96-12.65c.41-1.78-.26-2.1-1.24-3.2-3.58-4.07-10.44-8.45-14.72-13.34-30.9-35.33-19.53-58.86-29.06-98.49-8.65-35.95-33.84-64.26-64.65-83.28,12.81-8.71,25.62-17.44,35.56-29.52l-12.65-25.96c-1.76-.36-1.63-.26-2.64.81-6.67,7.08-9.91,13.04-18.41,19.57-96.77,74.3-217.37-54.71-138.33-145.98,4.08-4.71,12.64-10.42,15.31-14.03.82-1.11,1.7-1.36,1.23-3.21l-25.96-12.64c-11.15,10.09-20.84,22.14-27.63,35.58Z"/>
          <path class="cls-4" d="M-294.48,540c1.06-5.84,24.41-30.65,27.43-30.62,14.35,8.31,28.93,16.73,45.3,20.44-6.06,4.96-13.09,8.26-19.14,13.36-17.31,14.57-31.39,38.34-33.19,61.19-7.36,93.37,103.21,139.62,164.55,70.16l12.78-19.72c4.48,16.16,11.38,31.72,21.33,45.27-8.09,12.12-20.06,20.71-31.49,29.34,21.92,15.07,40.86,36.23,51.23,60.99,20.04,47.89-1.62,87.73,45.67,126.52l17.86,12.09c-16.38,3.83-30.86,12.15-45.3,20.41-19.76-15.05-35.47-37.32-43.36-61.18-15.44-46.68,3.25-83.82-45.39-119.15-75.42-54.78-175.29,22.82-142.06,108.89,26.81,69.44,119.97,80.3,163.13,20.32l8.39-13.91c4.21,16.53,12.12,31.56,21.09,45.89-55.24,71.21-171.77,65.34-218.8-11.45-1.96-.49-2.04.32-3.08,1.35-5.59,5.52-19.64,28.02-27.16,29.09-7.36-2.62-13.84-8.04-21.17-11.54-7.92-3.78-16.45-6.96-25.09-8.72l21.69-14.64c48.33-42.91,40.16-120.47-16.57-151.82-40.08-22.15-88.56-11.81-117.33,23.02-4.84,5.86-7.94,12.7-12.78,18.46-2.65-16.85-12.5-31.48-20.23-46.37,9.43-10.92,20.21-20.25,31.7-28.87-29.68-17.83-51.5-49.33-59.08-83.16-6.72-29.99.01-51.82-17.68-80.53-9.55-15.5-23.28-25.3-38.03-35.29,15.94-3.81,30.41-11.67,44.21-20.21,25.09,16.96,42.89,49.04,48.53,78.61,6.32,33.16-1.19,51.85,21,82.32,44.75,61.43,143.26,43.64,164.25-29.2,27.93-96.95-95.82-163.8-161.29-86.03-5.1,6.06-8.4,13.09-13.36,19.15-.79-7.42-4.34-15.67-7.44-22.54-2.64-5.84-11.4-18.15-12.49-22.07-.3-1.1-.48-1.4.09-2.54,1.94-3.89,20.05-19.47,24.54-22.76,56.3-41.34,135.45-32.6,182.18,18.88,3.92,4.32,7.77,11.51,11.54,15.24,1.05,1.04,1.12,1.84,3.08,1.35ZM-294.48,554.03c-1.92.46-2.04-.27-3.1-1.34-4.59-4.63-9.56-15-14.71-21.01-44.71-52.21-121.27-60.81-176.47-19.52-4.38,3.28-18.56,13.98-17.21,19.22l13.17,23.9c36.47-49.33,110-56.15,153.76-12.15,86.39,86.86-30.71,226.04-131.3,152.98-56.09-40.74-29.63-86.77-54.36-138.24-7.25-15.08-18.26-28.21-30.59-39.34l-26.13,14.45c25.39,18.95,39.12,44.98,42.12,76.48.5,5.3-.54,11.23-.04,16.62,4.1,44.09,30.68,81.86,68.84,103.33-6.17,5.01-13.46,8.57-19.72,13.42-4.22,3.27-17.05,13.05-15.74,18.14.32,1.24,11.01,21.52,11.93,22.62,1.61,1.95,1.06,1.09,2.53.06,3.04-2.12,9.25-11.05,13.36-14.71,91.06-81.12,222.2,40.85,146.68,137.75-6.61,8.48-12.5,11.72-19.57,18.41-1.07,1.02-1.16.87-.82,2.64l26.16,12.47c4.54-4.57,9.87-8.8,14.03-13.71,4.87-5.75,9.65-15.88,14.09-20.35,1.05-1.06,1.17-1.8,3.1-1.34,39.71,78.24,152.27,91.89,209.08,24.68l-12.65-25.96c-1.76-.36-1.63-.26-2.64.81-7.21,7.65-10.59,13.78-19.88,20.65-79.96,59.18-187.96-19.48-156.05-113.96,27.67-81.95,142.38-91.69,183.91-15.5,16.6,30.45,8.75,57.35,18.58,88.57,6.69,21.25,20.36,41.43,36.87,56.3l25.96-12.65c.41-1.78-.26-2.1-1.24-3.2-3.58-4.07-10.44-8.45-14.72-13.34-30.9-35.33-19.53-58.86-29.06-98.49-8.65-35.95-33.84-64.26-64.65-83.28,12.81-8.71,25.62-17.44,35.56-29.52l-12.65-25.96c-1.76-.36-1.63-.26-2.64.81-6.67,7.08-9.91,13.04-18.41,19.57-96.77,74.3-217.37-54.71-138.33-145.98,4.08-4.71,12.64-10.42,15.31-14.03.82-1.11,1.7-1.36,1.23-3.21l-25.96-12.64c-11.15,10.09-20.84,22.14-27.63,35.58Z"/>
          <path class="cls-4" d="M164.7-378.36c1.06-5.84,24.41-30.65,27.43-30.62,14.35,8.31,28.93,16.73,45.3,20.44-6.06,4.96-13.09,8.26-19.14,13.36-17.31,14.57-31.39,38.34-33.19,61.19-7.36,93.37,103.21,139.62,164.55,70.16l12.78-19.72c4.48,16.16,11.38,31.72,21.33,45.27-8.09,12.12-20.06,20.71-31.49,29.34,21.92,15.07,40.86,36.23,51.23,60.99,20.04,47.89-1.62,87.73,45.67,126.52l17.86,12.09c-16.38,3.83-30.86,12.15-45.3,20.41-19.76-15.05-35.47-37.32-43.36-61.18-15.44-46.68,3.25-83.82-45.39-119.15-75.42-54.78-175.29,22.82-142.06,108.89,26.81,69.44,119.97,80.3,163.13,20.32l8.39-13.91c4.21,16.53,12.12,31.56,21.09,45.89C328.26,83.15,211.72,77.27,164.7.48c-1.96-.49-2.04.32-3.08,1.35-5.59,5.52-19.64,28.02-27.16,29.09-7.36-2.62-13.84-8.04-21.17-11.54-7.92-3.78-16.45-6.96-25.09-8.72l21.69-14.64c48.33-42.91,40.16-120.47-16.57-151.82-40.08-22.15-88.56-11.81-117.33,23.02-4.84,5.86-7.94,12.7-12.78,18.46-2.65-16.85-12.5-31.48-20.23-46.37,9.43-10.92,20.21-20.25,31.7-28.87-29.68-17.83-51.5-49.33-59.08-83.16-6.72-29.99.01-51.82-17.68-80.53-9.55-15.5-23.28-25.3-38.03-35.29,15.94-3.81,30.41-11.67,44.21-20.21,25.09,16.96,42.89,49.04,48.53,78.61,6.32,33.16-1.19,51.85,21,82.32,44.75,61.43,143.26,43.64,164.25-29.2,27.93-96.95-95.82-163.8-161.29-86.03-5.1,6.06-8.4,13.09-13.36,19.15-.79-7.42-4.34-15.67-7.44-22.54-2.64-5.84-11.4-18.15-12.49-22.07-.3-1.1-.48-1.4.09-2.54,1.94-3.89,20.05-19.47,24.54-22.76,56.3-41.34,135.45-32.6,182.18,18.88,3.92,4.32,7.77,11.51,11.54,15.24,1.05,1.04,1.12,1.84,3.08,1.35ZM164.7-364.33c-1.92.46-2.04-.27-3.1-1.34-4.59-4.63-9.56-15-14.71-21.01-44.71-52.21-121.27-60.81-176.47-19.52-4.38,3.28-18.56,13.98-17.21,19.22l13.17,23.9c36.47-49.33,110-56.15,153.76-12.15,86.39,86.86-30.71,226.04-131.3,152.98-56.09-40.74-29.63-86.77-54.36-138.24-7.25-15.08-18.26-28.21-30.59-39.34l-26.13,14.45c25.39,18.95,39.12,44.98,42.12,76.48.5,5.3-.54,11.23-.04,16.62,4.1,44.09,30.68,81.86,68.84,103.33-6.17,5.01-13.46,8.57-19.72,13.42-4.22,3.27-17.05,13.05-15.74,18.14.32,1.24,11.01,21.52,11.93,22.62,1.61,1.95,1.06,1.09,2.53.06,3.04-2.12,9.25-11.05,13.36-14.71C72.09-230.54,203.22-108.57,127.7-11.67,121.1-3.19,115.2.05,108.14,6.74c-1.07,1.02-1.16.87-.82,2.64l26.16,12.47c4.54-4.57,9.87-8.8,14.03-13.71,4.87-5.75,9.65-15.88,14.09-20.35,1.05-1.06,1.17-1.8,3.1-1.34,39.71,78.24,152.27,91.89,209.08,24.68l-12.65-25.96c-1.76-.36-1.63-.26-2.64.81-7.21,7.65-10.59,13.78-19.88,20.65-79.96,59.18-187.96-19.48-156.05-113.96,27.67-81.95,142.38-91.69,183.91-15.5,16.6,30.45,8.75,57.35,18.58,88.57,6.69,21.25,20.36,41.43,36.87,56.3l25.96-12.65c.41-1.78-.26-2.1-1.24-3.2-3.58-4.07-10.44-8.45-14.72-13.34-30.9-35.33-19.53-58.86-29.06-98.49-8.65-35.95-33.84-64.26-64.65-83.28,12.81-8.71,25.62-17.44,35.56-29.52l-12.65-25.96c-1.76-.36-1.63-.26-2.64.81-6.67,7.08-9.91,13.04-18.41,19.57-96.77,74.3-217.37-54.71-138.33-145.98,4.08-4.71,12.64-10.42,15.31-14.03.82-1.11,1.7-1.36,1.23-3.21l-25.96-12.64c-11.15,10.09-20.84,22.14-27.63,35.58Z"/>
          <path class="cls-4" d="M-294.48-378.36c1.06-5.84,24.41-30.65,27.43-30.62,14.35,8.31,28.93,16.73,45.3,20.44-6.06,4.96-13.09,8.26-19.14,13.36-17.31,14.57-31.39,38.34-33.19,61.19-7.36,93.37,103.21,139.62,164.55,70.16l12.78-19.72c4.48,16.16,11.38,31.72,21.33,45.27-8.09,12.12-20.06,20.71-31.49,29.34,21.92,15.07,40.86,36.23,51.23,60.99C-35.67-80.05-57.33-40.21-10.04-1.42L7.82,10.66c-16.38,3.83-30.86,12.15-45.3,20.41-19.76-15.05-35.47-37.32-43.36-61.18-15.44-46.68,3.25-83.82-45.39-119.15-75.42-54.78-175.29,22.82-142.06,108.89,26.81,69.44,119.97,80.3,163.13,20.32l8.39-13.91c4.21,16.53,12.12,31.56,21.09,45.89C-130.92,83.15-247.46,77.27-294.48.48c-1.96-.49-2.04.32-3.08,1.35-5.59,5.52-19.64,28.02-27.16,29.09-7.36-2.62-13.84-8.04-21.17-11.54-7.92-3.78-16.45-6.96-25.09-8.72l21.69-14.64c48.33-42.91,40.16-120.47-16.57-151.82-40.08-22.15-88.56-11.81-117.33,23.02-4.84,5.86-7.94,12.7-12.78,18.46-2.65-16.85-12.5-31.48-20.23-46.37,9.43-10.92,20.21-20.25,31.7-28.87-29.68-17.83-51.5-49.33-59.08-83.16-6.72-29.99.01-51.82-17.68-80.53-9.55-15.5-23.28-25.3-38.03-35.29,15.94-3.81,30.41-11.67,44.21-20.21,25.09,16.96,42.89,49.04,48.53,78.61,6.32,33.16-1.19,51.85,21,82.32,44.75,61.43,143.26,43.64,164.25-29.2,27.93-96.95-95.82-163.8-161.29-86.03-5.1,6.06-8.4,13.09-13.36,19.15-.79-7.42-4.34-15.67-7.44-22.54-2.64-5.84-11.4-18.15-12.49-22.07-.3-1.1-.48-1.4.09-2.54,1.94-3.89,20.05-19.47,24.54-22.76,56.3-41.34,135.45-32.6,182.18,18.88,3.92,4.32,7.77,11.51,11.54,15.24,1.05,1.04,1.12,1.84,3.08,1.35ZM-294.48-364.33c-1.92.46-2.04-.27-3.1-1.34-4.59-4.63-9.56-15-14.71-21.01-44.71-52.21-121.27-60.81-176.47-19.52-4.38,3.28-18.56,13.98-17.21,19.22l13.17,23.9c36.47-49.33,110-56.15,153.76-12.15,86.39,86.86-30.71,226.04-131.3,152.98-56.09-40.74-29.63-86.77-54.36-138.24-7.25-15.08-18.26-28.21-30.59-39.34l-26.13,14.45c25.39,18.95,39.12,44.98,42.12,76.48.5,5.3-.54,11.23-.04,16.62,4.1,44.09,30.68,81.86,68.84,103.33-6.17,5.01-13.46,8.57-19.72,13.42-4.22,3.27-17.05,13.05-15.74,18.14.32,1.24,11.01,21.52,11.93,22.62,1.61,1.95,1.06,1.09,2.53.06,3.04-2.12,9.25-11.05,13.36-14.71,91.06-81.12,222.2,40.85,146.68,137.75-6.61,8.48-12.5,11.72-19.57,18.41-1.07,1.02-1.16.87-.82,2.64l26.16,12.47c4.54-4.57,9.87-8.8,14.03-13.71,4.87-5.75,9.65-15.88,14.09-20.35,1.05-1.06,1.17-1.8,3.1-1.34,39.71,78.24,152.27,91.89,209.08,24.68l-12.65-25.96c-1.76-.36-1.63-.26-2.64.81-7.21,7.65-10.59,13.78-19.88,20.65-79.96,59.18-187.96-19.48-156.05-113.96,27.67-81.95,142.38-91.69,183.91-15.5,16.6,30.45,8.75,57.35,18.58,88.57,6.69,21.25,20.36,41.43,36.87,56.3L-11.3,9.38c.41-1.78-.26-2.1-1.24-3.2-3.58-4.07-10.44-8.45-14.72-13.34-30.9-35.33-19.53-58.86-29.06-98.49-8.65-35.95-33.84-64.26-64.65-83.28,12.81-8.71,25.62-17.44,35.56-29.52l-12.65-25.96c-1.76-.36-1.63-.26-2.64.81-6.67,7.08-9.91,13.04-18.41,19.57-96.77,74.3-217.37-54.71-138.33-145.98,4.08-4.71,12.64-10.42,15.31-14.03.82-1.11,1.7-1.36,1.23-3.21l-25.96-12.64c-11.15,10.09-20.84,22.14-27.63,35.58Z"/>
          <path class="cls-4" d="M623.88-378.36c1.06-5.84,24.41-30.65,27.43-30.62,14.35,8.31,28.93,16.73,45.3,20.44-6.06,4.96-13.09,8.26-19.14,13.36-54.25,45.67-40.14,130.5,24.04,157.74.02,2.15,1.81,7.98-1.7,7.47-4.68-.68-17.12-8.65-21.45-11.73-48.29-34.37-56.26-103.47-17.42-148.32,4.08-4.71,12.64-10.42,15.31-14.03.82-1.11,1.7-1.36,1.23-3.21l-25.96-12.64c-11.73,9.24-18.79,22.17-27.27,33.98-.45.63-.21,2.57-2.23,1.6-1.2-.57-12.5-18.37-15.3-21.69-44.62-52.73-121.61-61.68-177.09-20.18-4.38,3.28-18.56,13.98-17.21,19.22l13.17,23.9c16.39-21.26,39.87-36.27,66.67-40.44,86.11-13.42,147.55,82.39,99.54,155.66-46.46,70.91-157.04,54.62-180.9-26.52-5.83-19.84-3.06-40.31-8.01-60.87-5.95-24.71-20.79-47.98-39.79-64.57l-26.13,14.45c25.39,18.95,39.12,44.98,42.12,76.48.5,5.3-.54,11.23-.04,16.62,4.1,44.09,30.67,81.86,68.84,103.33-6.17,5.01-13.46,8.57-19.72,13.42-4.22,3.27-17.05,13.05-15.74,18.14.32,1.24,11.01,21.52,11.93,22.62,1.61,1.95,1.06,1.09,2.53.06,3.04-2.11,9.25-11.05,13.36-14.71,96.23-85.74,229.37,53.39,139.72,146.09-3.66,3.78-9.04,6.68-12.61,10.07-1.07,1.02-1.16.87-.82,2.64l26.16,12.47c4.54-4.57,9.87-8.8,14.03-13.71,4.88-5.75,9.65-15.87,14.09-20.35,1.05-1.06,1.18-1.8,3.1-1.34,15.91,30.19,44.35,54.32,77.7,62.62l.12,8.8c-31.45-9.38-60.78-28.93-77.82-57.39-1.96-.49-2.04.32-3.08,1.35-5.59,5.52-19.64,28.02-27.16,29.09-7.36-2.62-13.84-8.04-21.17-11.54-7.92-3.78-16.45-6.96-25.09-8.72l21.69-14.64c47.74-42.29,40.45-118.92-14.93-150.91-40.24-23.24-89.7-13.33-118.97,22.11-4.84,5.86-7.94,12.7-12.78,18.46-2.65-16.85-12.5-31.48-20.23-46.37,9.43-10.92,20.21-20.25,31.7-28.87-35.91-21.63-58.43-61.08-62.48-102.71-.52-5.37.51-11.29.04-16.62-3.09-34.57-22.01-62.62-52.34-79.03,15.59-5.11,30.42-11.88,44.2-20.83,25.09,16.96,42.89,49.04,48.53,78.61,6.32,33.16-1.19,51.85,21,82.32,44.75,61.43,143.26,43.64,164.25-29.2,27.93-96.95-95.82-163.8-161.29-86.03-5.1,6.06-8.4,13.09-13.36,19.15-.79-7.42-4.34-15.67-7.44-22.54-2.64-5.84-11.4-18.15-12.49-22.07-.3-1.1-.48-1.4.09-2.54,1.94-3.89,20.05-19.47,24.54-22.76,56.3-41.34,135.45-32.6,182.18,18.88,3.92,4.32,7.77,11.51,11.54,15.24,1.05,1.04,1.12,1.84,3.08,1.35Z"/>
          <path class="cls-4" d="M623.88,80.82c1.06-5.84,24.41-30.65,27.43-30.62,14.35,8.31,28.93,16.73,45.3,20.44-6.06,4.96-13.09,8.26-19.14,13.36-54.25,45.67-40.14,130.5,24.04,157.74.02,2.15,1.81,7.98-1.7,7.47-4.68-.68-17.12-8.65-21.45-11.73-48.29-34.37-56.26-103.47-17.42-148.32,4.08-4.71,12.64-10.42,15.31-14.03.82-1.11,1.7-1.36,1.23-3.21l-25.96-12.64c-11.73,9.24-18.79,22.17-27.27,33.98-.45.63-.21,2.57-2.23,1.6-1.2-.57-12.5-18.37-15.3-21.69-44.62-52.73-121.61-61.68-177.09-20.18-4.38,3.28-18.56,13.98-17.21,19.22l13.17,23.9c16.39-21.26,39.87-36.27,66.67-40.44,86.11-13.42,147.55,82.39,99.54,155.66-46.46,70.91-157.04,54.62-180.9-26.52-5.83-19.84-3.06-40.31-8.01-60.87-5.95-24.71-20.79-47.98-39.79-64.57l-26.13,14.45c25.39,18.95,39.12,44.98,42.12,76.48.5,5.3-.54,11.23-.04,16.62,4.1,44.09,30.67,81.86,68.84,103.33-6.17,5.01-13.46,8.57-19.72,13.42-4.22,3.27-17.05,13.05-15.74,18.14.32,1.24,11.01,21.52,11.93,22.62,1.61,1.95,1.06,1.09,2.53.06,3.04-2.11,9.25-11.05,13.36-14.71,96.23-85.74,229.37,53.39,139.72,146.09-3.66,3.78-9.04,6.68-12.61,10.07-1.07,1.02-1.16.87-.82,2.64l26.16,12.47c4.54-4.57,9.87-8.8,14.03-13.71,4.88-5.75,9.65-15.87,14.09-20.35,1.05-1.06,1.18-1.8,3.1-1.34,15.91,30.19,44.35,54.32,77.7,62.62l.12,8.8c-31.45-9.38-60.78-28.93-77.82-57.39-1.96-.49-2.04.32-3.08,1.35-5.59,5.52-19.64,28.02-27.16,29.09-7.36-2.62-13.84-8.04-21.17-11.54-7.92-3.78-16.45-6.96-25.09-8.72l21.69-14.64c47.74-42.29,40.45-118.92-14.93-150.91-40.24-23.24-89.7-13.33-118.97,22.11-4.84,5.86-7.94,12.7-12.78,18.46-2.65-16.85-12.5-31.48-20.23-46.37,9.43-10.92,20.21-20.25,31.7-28.87-35.91-21.63-58.43-61.08-62.48-102.71-.52-5.37.51-11.29.04-16.62-3.09-34.57-22.01-62.62-52.34-79.03,15.59-5.11,30.42-11.88,44.2-20.83,25.09,16.96,42.89,49.04,48.53,78.61,6.32,33.16-1.19,51.85,21,82.32,44.75,61.43,143.26,43.64,164.25-29.2,27.93-96.95-95.82-163.8-161.29-86.03-5.1,6.06-8.4,13.09-13.36,19.15-.79-7.42-4.34-15.67-7.44-22.54-2.64-5.84-11.4-18.15-12.49-22.07-.3-1.1-.48-1.4.09-2.54,1.94-3.89,20.05-19.47,24.54-22.76,56.3-41.34,135.45-32.6,182.18,18.88,3.92,4.32,7.77,11.51,11.54,15.24,1.05,1.04,1.12,1.84,3.08,1.35Z"/>
          <path class="cls-4" d="M623.88,540c1.06-5.84,24.41-30.65,27.43-30.62,14.35,8.31,28.93,16.73,45.3,20.44-6.06,4.96-13.09,8.26-19.14,13.36-54.25,45.67-40.14,130.5,24.04,157.74.02,2.15,1.81,7.98-1.7,7.47-4.68-.68-17.12-8.65-21.45-11.73-48.29-34.37-56.26-103.47-17.42-148.32,4.08-4.71,12.64-10.42,15.31-14.03.82-1.11,1.7-1.36,1.23-3.21l-25.96-12.64c-11.73,9.24-18.79,22.17-27.27,33.98-.45.63-.21,2.57-2.23,1.6-1.2-.57-12.5-18.37-15.3-21.69-44.62-52.73-121.61-61.68-177.09-20.18-4.38,3.28-18.56,13.98-17.21,19.22l13.17,23.9c16.39-21.26,39.87-36.27,66.67-40.44,86.11-13.42,147.55,82.39,99.54,155.66-46.46,70.91-157.04,54.62-180.9-26.52-5.83-19.84-3.06-40.31-8.01-60.87-5.95-24.71-20.79-47.98-39.79-64.57l-26.13,14.45c25.39,18.95,39.12,44.98,42.12,76.48.5,5.3-.54,11.23-.04,16.62,4.1,44.09,30.67,81.86,68.84,103.33-6.17,5.01-13.46,8.57-19.72,13.42-4.22,3.27-17.05,13.05-15.74,18.14.32,1.24,11.01,21.52,11.93,22.62,1.61,1.95,1.06,1.09,2.53.06,3.04-2.11,9.25-11.05,13.36-14.71,96.23-85.74,229.37,53.39,139.72,146.09-3.66,3.78-9.04,6.68-12.61,10.07-1.07,1.02-1.16.87-.82,2.64l26.16,12.47c4.54-4.57,9.87-8.8,14.03-13.71,4.88-5.75,9.65-15.87,14.09-20.35,1.05-1.06,1.18-1.8,3.1-1.34,15.91,30.19,44.35,54.32,77.7,62.62l.12,8.8c-31.45-9.38-60.78-28.93-77.82-57.39-1.96-.49-2.04.32-3.08,1.35-5.59,5.52-19.64,28.02-27.16,29.09-7.36-2.62-13.84-8.04-21.17-11.54-7.92-3.78-16.45-6.96-25.09-8.72l21.69-14.64c47.74-42.29,40.45-118.92-14.93-150.91-40.24-23.24-89.7-13.33-118.97,22.11-4.84,5.86-7.94,12.7-12.78,18.46-2.65-16.85-12.5-31.48-20.23-46.37,9.43-10.92,20.21-20.25,31.7-28.87-35.91-21.63-58.43-61.08-62.48-102.71-.52-5.37.51-11.29.04-16.62-3.09-34.57-22.01-62.62-52.34-79.03,15.59-5.11,30.42-11.88,44.2-20.83,25.09,16.96,42.89,49.04,48.53,78.61,6.32,33.16-1.19,51.85,21,82.32,44.75,61.43,143.26,43.64,164.25-29.2,27.93-96.95-95.82-163.8-161.29-86.03-5.1,6.06-8.4,13.09-13.36,19.15-.79-7.42-4.34-15.67-7.44-22.54-2.64-5.84-11.4-18.15-12.49-22.07-.3-1.1-.48-1.4.09-2.54,1.94-3.89,20.05-19.47,24.54-22.76,56.3-41.34,135.45-32.6,182.18,18.88,3.92,4.32,7.77,11.51,11.54,15.24,1.05,1.04,1.12,1.84,3.08,1.35Z"/>
          <path class="cls-4" d="M621.37,784.91c-11.98-24.39-32.44-41.66-54.86-56.11,23.42-12.02,42.83-31.43,54.86-54.86,15.13,22.86,32.18,41.47,56.08,55.48-10.29,7.49-22.23,14.54-31.28,23.54-9.6,9.53-16.09,21.73-24.79,31.95ZM623.87,689.25c-1.78-.42-2.09.26-3.2,1.23-3.7,3.25-8.29,11.7-12.12,15.94-7.92,8.77-17.67,15.49-26.73,22.99,15.15,11.67,30.76,24.09,39.53,41.45,12.23-15.62,25.26-30.54,42.05-41.45-15.24-10.72-30.34-23.7-39.54-40.17Z"/>
          <path class="cls-4" d="M621.37,325.72c-11.98-24.39-32.44-41.66-54.86-56.11,23.42-12.02,42.83-31.43,54.86-54.86,15.13,22.86,32.18,41.47,56.08,55.48-10.29,7.49-22.23,14.54-31.28,23.54-9.6,9.53-16.09,21.73-24.79,31.95ZM623.87,230.07c-1.78-.42-2.09.26-3.2,1.23-3.7,3.25-8.29,11.7-12.12,15.94-7.92,8.77-17.67,15.49-26.73,22.99,15.15,11.67,30.76,24.09,39.53,41.45,12.23-15.62,25.26-30.54,42.05-41.45-15.24-10.72-30.34-23.7-39.54-40.17Z"/>
          <path class="cls-4" d="M129.12,385.08c0,44.62-36.17,80.79-80.79,80.79s-80.79-36.17-80.79-80.79S3.72,304.29,48.34,304.29s80.79,36.17,80.79,80.79ZM125.43,385.09c0-42.57-34.51-77.08-77.08-77.08s-77.08,34.51-77.08,77.08,34.51,77.08,77.08,77.08,77.08-34.51,77.08-77.08Z"/>
          <path class="cls-4" d="M588.3,155.49c0,44.61-36.17,80.78-80.78,80.78s-80.78-36.17-80.78-80.78,36.17-80.78,80.78-80.78,80.78,36.17,80.78,80.78ZM584.61,155.5c0-42.57-34.51-77.08-77.08-77.08s-77.08,34.51-77.08,77.08,34.51,77.08,77.08,77.08,77.08-34.51,77.08-77.08Z"/>
          <path class="cls-4" d="M358.71,385.08c0,44.62-36.17,80.79-80.79,80.79s-80.79-36.17-80.79-80.79,36.17-80.79,80.79-80.79,80.79,36.17,80.79,80.79ZM355.02,385.09c0-42.57-34.51-77.08-77.08-77.08s-77.08,34.51-77.08,77.08,34.51,77.08,77.08,77.08,77.08-34.51,77.08-77.08Z"/>
          <path class="cls-4" d="M358.71,155.49c0,44.61-36.17,80.78-80.78,80.78s-80.78-36.17-80.78-80.78,36.17-80.78,80.78-80.78,80.78,36.17,80.78,80.78ZM355.02,155.5c0-42.57-34.51-77.08-77.08-77.08s-77.08,34.51-77.08,77.08,34.51,77.08,77.08,77.08,77.08-34.51,77.08-77.08Z"/>
          <path class="cls-4" d="M129.12,155.49c0,44.61-36.17,80.78-80.78,80.78s-80.78-36.17-80.78-80.78S3.72,74.71,48.34,74.71s80.78,36.17,80.78,80.78ZM125.43,155.5c0-42.57-34.51-77.08-77.08-77.08S-28.72,112.93-28.72,155.5,5.79,232.58,48.35,232.58s77.08-34.51,77.08-77.08Z"/>
          <path class="cls-4" d="M588.3,385.08c0,44.62-36.17,80.79-80.79,80.79s-80.79-36.17-80.79-80.79,36.17-80.79,80.79-80.79,80.79,36.17,80.79,80.79ZM584.61,385.09c0-42.57-34.51-77.08-77.08-77.08s-77.08,34.51-77.08,77.08,34.51,77.08,77.08,77.08,77.08-34.51,77.08-77.08Z"/>
          <path class="cls-4" d="M588.3,614.67c0,44.61-36.17,80.78-80.78,80.78s-80.78-36.17-80.78-80.78,36.17-80.78,80.78-80.78,80.78,36.17,80.78,80.78ZM584.61,614.68c0-42.57-34.51-77.08-77.08-77.08s-77.08,34.51-77.08,77.08,34.51,77.08,77.08,77.08,77.08-34.51,77.08-77.08Z"/>
          <path class="cls-4" d="M358.71,614.67c0,44.61-36.17,80.78-80.78,80.78s-80.78-36.17-80.78-80.78,36.17-80.78,80.78-80.78,80.78,36.17,80.78,80.78ZM355.02,614.68c0-42.57-34.51-77.08-77.08-77.08s-77.08,34.51-77.08,77.08,34.51,77.08,77.08,77.08,77.08-34.51,77.08-77.08Z"/>
          <path class="cls-4" d="M588.3-74.1c0,44.62-36.17,80.79-80.79,80.79s-80.79-36.17-80.79-80.79,36.17-80.79,80.79-80.79,80.79,36.17,80.79,80.79ZM584.61-74.09c0-42.57-34.51-77.08-77.08-77.08s-77.08,34.51-77.08,77.08S464.96,2.98,507.53,2.98s77.08-34.51,77.08-77.08Z"/>
          <path class="cls-4" d="M129.12,614.67c0,44.61-36.17,80.78-80.78,80.78s-80.78-36.17-80.78-80.78,36.17-80.78,80.78-80.78,80.78,36.17,80.78,80.78ZM125.43,614.68c0-42.57-34.51-77.08-77.08-77.08s-77.08,34.51-77.08,77.08,34.51,77.08,77.08,77.08,77.08-34.51,77.08-77.08Z"/>
          <path class="cls-4" d="M358.71-74.1c0,44.62-36.17,80.79-80.79,80.79s-80.79-36.17-80.79-80.79,36.17-80.79,80.79-80.79,80.79,36.17,80.79,80.79ZM355.02-74.09c0-42.57-34.51-77.08-77.08-77.08s-77.08,34.51-77.08,77.08S235.37,2.98,277.94,2.98s77.08-34.51,77.08-77.08Z"/>
          <path class="cls-4" d="M129.12-74.1C129.12-29.49,92.95,6.68,48.34,6.68S-32.45-29.49-32.45-74.1,3.72-154.89,48.34-154.89s80.79,36.17,80.79,80.79ZM125.43-74.09c0-42.57-34.51-77.08-77.08-77.08S-28.73-116.66-28.73-74.09,5.78,2.98,48.35,2.98,125.43-31.52,125.43-74.09Z"/>
          <path class="cls-4" d="M701.7-167.89c-.18,2.27.69,5.82-.58,7.7-.68,1.01-17.21,9.17-20.99,12.17-56.92,45.06-44.37,132.12,21.37,160.17.02,2.15,1.81,7.98-1.7,7.47-6.24-.91-23.46-12.71-28.72-17.22-57.7-49.43-40.81-145.58,30.62-170.29Z"/>
          <path class="cls-4" d="M701.7,291.29c-.18,2.27.69,5.82-.58,7.7-.68,1.01-17.21,9.17-20.99,12.17-56.92,45.06-44.37,132.12,21.37,160.17.02,2.15,1.81,7.98-1.7,7.47-6.24-.91-23.46-12.71-28.72-17.22-57.7-49.43-40.81-145.58,30.62-170.29Z"/>
          <path class="cls-4" d="M701.7,542.57c.41,2.92.06,3.27-2.09,4.91-5.25,3.99-12.19,7.47-17.03,12.31-30.16,30.14-29.85,80.53.59,110.36,4.86,4.76,13.54,8.58,17.23,12.11,1.25,1.2,2.38,3.34.65,4.45-15.58-7.32-29.02-20.69-36.56-36.14-19.26-39.42-3.1-89.86,37.21-108Z"/>
          <path class="cls-4" d="M701.7,83.39c.41,2.92.06,3.27-2.09,4.91-5.25,3.99-12.19,7.47-17.03,12.31-30.16,30.14-29.85,80.53.59,110.36,4.86,4.76,13.54,8.58,17.23,12.11,1.25,1.2,2.38,3.34.65,4.45-15.58-7.32-29.02-20.69-36.56-36.14-19.26-39.42-3.1-89.86,37.21-108Z"/>
          <path class="cls-4" d="M701.7,312.98c.41,2.92.06,3.27-2.09,4.91-13.1,9.95-20.86,13.8-29.54,29.13-17.19,30.36-11.83,69.11,13.1,93.54,4.86,4.76,13.54,8.58,17.23,12.11,1.25,1.2,2.38,3.34.65,4.45-15.58-7.32-29.02-20.69-36.56-36.14-19.26-39.42-3.1-89.86,37.21-108Z"/>
          <path class="cls-4" d="M376.63,38.9l15.76-15.44,17.2,17.2-17.2,17.2c-3.24-4.02-6.5-7.84-10.17-11.49-2.5-2.49-6.95-3.19-5.6-7.45ZM392.34,34.83l-5.81,5.83,5.83,5.82,5.81-5.83-5.83-5.82Z"/>
          <path class="cls-4" d="M376.63,498.08l15.76-15.44,17.2,17.2-17.2,17.2c-3.24-4.02-6.5-7.84-10.17-11.49-2.5-2.49-6.95-3.19-5.6-7.45ZM392.34,494.01l-5.81,5.83,5.83,5.82,5.81-5.83-5.83-5.82Z"/>
          <path class="cls-4" d="M606.22,498.08l15.76-15.46,17.2,17.21-17.2,17.2c-2.91-4.3-6.49-7.87-10.16-11.49-2.51-2.48-6.94-3.21-5.6-7.45ZM621.93,494.01l-5.81,5.83,5.83,5.82,5.81-5.83-5.83-5.82Z"/>
          <path class="cls-4" d="M147.04,498.08l15.76-15.46,17.2,17.21-17.2,17.2c-2.91-4.3-6.49-7.87-10.16-11.49-2.51-2.48-6.94-3.21-5.6-7.45ZM162.75,494.01l-5.81,5.83,5.83,5.82,5.81-5.83-5.83-5.82Z"/>
          <path class="cls-4" d="M606.22,38.9l15.76-15.46,17.2,17.21-17.2,17.2c-2.91-4.3-6.49-7.87-10.16-11.49-2.51-2.48-6.94-3.21-5.6-7.45ZM621.93,34.83l-5.81,5.83,5.83,5.82,5.81-5.83-5.83-5.82Z"/>
          <path class="cls-4" d="M376.7,271.96v-3.43l15.69-15.48,17.2,17.2-17.2,17.2-15.69-15.48ZM392.34,264.42l-5.81,5.83,5.83,5.82,5.81-5.83-5.83-5.82Z"/>
          <path class="cls-4" d="M147.04,38.9l15.76-15.46,17.2,17.21-17.2,17.2c-2.91-4.3-6.49-7.87-10.16-11.49-2.51-2.48-6.94-3.21-5.6-7.45ZM162.75,34.83l-5.81,5.83,5.83,5.82,5.81-5.83-5.83-5.82Z"/>
          <path class="cls-4" d="M701.7,329.56c.46,5.91-6.1,7.58-9.59,11.44-22,24.32-24.28,61.14-1.84,86.09,3.84,4.27,12.33,7.93,10.79,13.45-36.48-22.61-40.33-75.45-8.95-104.63,1.08-1.01,8.67-7.36,9.59-6.34Z"/>
          <path class="cls-4" d="M701.7,559.15c.46,5.91-6.1,7.58-9.59,11.44-22,24.32-24.28,61.14-1.84,86.09,3.84,4.27,12.33,7.93,10.79,13.45-35.56-22.03-40.3-73.09-10.87-102.73,1.07-1.08,10.62-9.25,11.51-8.24Z"/>
          <path class="cls-4" d="M701.7,99.97c.46,5.91-6.1,7.58-9.59,11.44-22,24.32-24.28,61.14-1.84,86.09,3.84,4.27,12.33,7.93,10.79,13.45-35.56-22.03-40.3-73.09-10.87-102.73,1.07-1.08,10.62-9.25,11.51-8.24Z"/>
          <path class="cls-4" d="M701.69,193.07c-22.2-18.51-22.09-56.65,0-75.25,1,6.5-4.77,9.8-7.41,14.89-7.39,14.25-7.24,31.23,0,45.47,2.48,4.88,8.14,8.85,7.42,14.89Z"/>
          <path class="cls-4" d="M701.69,422.66c-22.2-18.51-22.09-56.65,0-75.25,1,6.5-4.77,9.8-7.41,14.89-7.39,14.25-7.24,31.23,0,45.47,2.48,4.88,8.14,8.85,7.42,14.89Z"/>
          <path class="cls-4" d="M701.69,652.25c-22.2-18.51-22.09-56.65,0-75.25,1,6.5-4.77,9.8-7.41,14.89-7.39,14.25-7.24,31.23,0,45.47,2.48,4.88,8.14,8.85,7.42,14.89Z"/>
          <polygon class="cls-4" points="701.7 166.29 699.04 155.45 701.7 144.6 701.7 166.29"/>
          <polygon class="cls-4" points="701.7 395.88 699.04 385.04 701.7 374.19 701.7 395.88"/>
          <polygon class="cls-4" points="701.7 625.47 699.04 614.63 701.7 603.78 701.7 625.47"/>
          <path class="cls-4" d="M162.19,325.72c-11.98-24.39-32.44-41.66-54.86-56.11,23.42-12.02,42.83-31.43,54.86-54.86,15.13,22.86,32.18,41.47,56.08,55.48-10.29,7.49-22.23,14.54-31.28,23.54-9.6,9.53-16.09,21.73-24.79,31.95ZM164.69,230.07c-1.78-.42-2.09.26-3.2,1.23-3.7,3.25-8.29,11.7-12.12,15.94-7.92,8.77-17.67,15.49-26.73,22.99,15.15,11.67,30.76,24.09,39.53,41.45,12.23-15.62,25.26-30.54,42.05-41.45-15.24-10.72-30.34-23.7-39.54-40.17Z"/>
          <path class="cls-4" d="M162.19,784.91c-11.98-24.39-32.44-41.66-54.86-56.11,23.42-12.02,42.83-31.43,54.86-54.86,15.13,22.86,32.18,41.47,56.08,55.48-10.29,7.49-22.23,14.54-31.28,23.54-9.6,9.53-16.09,21.73-24.79,31.95ZM164.69,689.25c-1.78-.42-2.09.26-3.2,1.23-3.7,3.25-8.29,11.7-12.12,15.94-7.92,8.77-17.67,15.49-26.73,22.99,15.15,11.67,30.76,24.09,39.53,41.45,12.23-15.62,25.26-30.54,42.05-41.45-15.24-10.72-30.34-23.7-39.54-40.17Z"/>
          <path class="cls-4" d="M621.99,253.04l17.2,17.2-17.2,17.2-17.19-17.19c6.28-5.4,12.38-10.34,17.19-17.2ZM621.99,264.46l-5.78,5.78,5.78,5.78,5.78-5.78-5.78-5.78Z"/>
          <path class="cls-4" d="M114.74,385.1c0,36.67-29.73,66.4-66.4,66.4s-66.4-29.73-66.4-66.4,29.73-66.4,66.4-66.4,66.4,29.73,66.4,66.4ZM111.09,385.08c0-34.65-28.09-62.73-62.73-62.73s-62.73,28.09-62.73,62.73,28.09,62.73,62.73,62.73,62.73-28.09,62.73-62.73Z"/>
          <path class="cls-4" d="M573.92,155.51c0,36.67-29.73,66.39-66.39,66.39s-66.39-29.73-66.39-66.39,29.73-66.39,66.39-66.39,66.39,29.73,66.39,66.39ZM570.27,155.49c0-34.65-28.09-62.73-62.73-62.73s-62.73,28.09-62.73,62.73,28.09,62.73,62.73,62.73,62.73-28.09,62.73-62.73Z"/>
          <path class="cls-4" d="M344.33,385.1c0,36.67-29.73,66.4-66.4,66.4s-66.4-29.73-66.4-66.4,29.73-66.4,66.4-66.4,66.4,29.73,66.4,66.4ZM340.68,385.08c0-34.65-28.09-62.73-62.73-62.73s-62.73,28.09-62.73,62.73,28.09,62.73,62.73,62.73,62.73-28.09,62.73-62.73Z"/>
          <path class="cls-4" d="M344.33,155.51c0,36.67-29.73,66.39-66.39,66.39s-66.39-29.73-66.39-66.39,29.73-66.39,66.39-66.39,66.39,29.73,66.39,66.39ZM340.68,155.49c0-34.65-28.09-62.73-62.73-62.73s-62.73,28.09-62.73,62.73,28.09,62.73,62.73,62.73,62.73-28.09,62.73-62.73Z"/>
          <path class="cls-4" d="M114.74,155.51c0,36.67-29.73,66.39-66.39,66.39s-66.39-29.73-66.39-66.39S11.68,89.11,48.35,89.11s66.39,29.73,66.39,66.39ZM111.09,155.49c0-34.65-28.09-62.73-62.73-62.73s-62.73,28.09-62.73,62.73,28.09,62.73,62.73,62.73,62.73-28.09,62.73-62.73Z"/>
          <path class="cls-4" d="M573.92,385.1c0,36.67-29.73,66.4-66.4,66.4s-66.4-29.73-66.4-66.4,29.73-66.4,66.4-66.4,66.4,29.73,66.4,66.4ZM570.27,385.08c0-34.65-28.09-62.73-62.73-62.73s-62.73,28.09-62.73,62.73,28.09,62.73,62.73,62.73,62.73-28.09,62.73-62.73Z"/>
          <path class="cls-4" d="M573.92,614.69c0,36.67-29.73,66.39-66.39,66.39s-66.39-29.73-66.39-66.39,29.73-66.39,66.39-66.39,66.39,29.73,66.39,66.39ZM570.27,614.67c0-34.65-28.09-62.73-62.73-62.73s-62.73,28.09-62.73,62.73,28.09,62.73,62.73,62.73,62.73-28.09,62.73-62.73Z"/>
          <path class="cls-4" d="M344.33,614.69c0,36.67-29.73,66.39-66.39,66.39s-66.39-29.73-66.39-66.39,29.73-66.39,66.39-66.39,66.39,29.73,66.39,66.39ZM340.68,614.67c0-34.65-28.09-62.73-62.73-62.73s-62.73,28.09-62.73,62.73,28.09,62.73,62.73,62.73,62.73-28.09,62.73-62.73Z"/>
          <path class="cls-4" d="M114.74,614.69c0,36.67-29.73,66.39-66.39,66.39s-66.39-29.73-66.39-66.39,29.73-66.39,66.39-66.39,66.39,29.73,66.39,66.39ZM111.09,614.67c0-34.65-28.09-62.73-62.73-62.73s-62.73,28.09-62.73,62.73,28.09,62.73,62.73,62.73,62.73-28.09,62.73-62.73Z"/>
          <path class="cls-4" d="M162.81,253.04l17.2,17.2-17.2,17.2-17.19-17.19c6.28-5.4,12.38-10.34,17.19-17.2ZM162.81,264.46l-5.78,5.78,5.78,5.78,5.78-5.78-5.78-5.78Z"/>
          <path class="cls-4" d="M100.37,385.1c0,28.75-23.31,52.06-52.06,52.06S-3.75,413.85-3.75,385.1s23.31-52.06,52.06-52.06,52.06,23.31,52.06,52.06ZM96.68,385.1c0-26.69-21.64-48.33-48.33-48.33S.02,358.41.02,385.1s21.64,48.33,48.33,48.33,48.33-21.64,48.33-48.33Z"/>
          <path class="cls-4" d="M559.55,155.51c0,28.75-23.31,52.06-52.06,52.06s-52.06-23.31-52.06-52.06,23.31-52.06,52.06-52.06,52.06,23.31,52.06,52.06ZM555.86,155.51c0-26.69-21.64-48.33-48.33-48.33s-48.33,21.64-48.33,48.33,21.64,48.33,48.33,48.33,48.33-21.64,48.33-48.33Z"/>
          <path class="cls-4" d="M329.96,385.1c0,28.75-23.31,52.06-52.06,52.06s-52.06-23.31-52.06-52.06,23.31-52.06,52.06-52.06,52.06,23.31,52.06,52.06ZM326.27,385.1c0-26.69-21.64-48.33-48.33-48.33s-48.33,21.64-48.33,48.33,21.64,48.33,48.33,48.33,48.33-21.64,48.33-48.33Z"/>
          <path class="cls-4" d="M329.96,155.51c0,28.75-23.31,52.06-52.06,52.06s-52.06-23.31-52.06-52.06,23.31-52.06,52.06-52.06,52.06,23.31,52.06,52.06ZM326.27,155.51c0-26.69-21.64-48.33-48.33-48.33s-48.33,21.64-48.33,48.33,21.64,48.33,48.33,48.33,48.33-21.64,48.33-48.33Z"/>
          <path class="cls-4" d="M100.37,155.51c0,28.75-23.31,52.06-52.06,52.06S-3.75,184.26-3.75,155.51s23.31-52.06,52.06-52.06,52.06,23.31,52.06,52.06ZM96.68,155.51c0-26.69-21.64-48.33-48.33-48.33S.02,128.82.02,155.51s21.64,48.33,48.33,48.33,48.33-21.64,48.33-48.33Z"/>
          <path class="cls-4" d="M559.55,385.1c0,28.75-23.31,52.06-52.06,52.06s-52.06-23.31-52.06-52.06,23.31-52.06,52.06-52.06,52.06,23.31,52.06,52.06ZM555.86,385.1c0-26.69-21.64-48.33-48.33-48.33s-48.33,21.64-48.33,48.33,21.64,48.33,48.33,48.33,48.33-21.64,48.33-48.33Z"/>
          <path class="cls-4" d="M559.55,614.69c0,28.75-23.31,52.06-52.06,52.06s-52.06-23.31-52.06-52.06,23.31-52.06,52.06-52.06,52.06,23.31,52.06,52.06ZM555.86,614.69c0-26.69-21.64-48.33-48.33-48.33s-48.33,21.64-48.33,48.33,21.64,48.33,48.33,48.33,48.33-21.64,48.33-48.33Z"/>
          <path class="cls-4" d="M329.96,614.69c0,28.75-23.31,52.06-52.06,52.06s-52.06-23.31-52.06-52.06,23.31-52.06,52.06-52.06,52.06,23.31,52.06,52.06ZM326.27,614.69c0-26.69-21.64-48.33-48.33-48.33s-48.33,21.64-48.33,48.33,21.64,48.33,48.33,48.33,48.33-21.64,48.33-48.33Z"/>
          <path class="cls-4" d="M100.37,614.69c0,28.75-23.31,52.06-52.06,52.06s-52.06-23.31-52.06-52.06,23.31-52.06,52.06-52.06,52.06,23.31,52.06,52.06ZM96.68,614.69c0-26.69-21.64-48.33-48.33-48.33S.02,588,.02,614.69s21.64,48.33,48.33,48.33,48.33-21.64,48.33-48.33Z"/>
          <path class="cls-4" d="M86.06,385.09c0,20.84-16.89,37.73-37.73,37.73s-37.73-16.89-37.73-37.73,16.89-37.73,37.73-37.73,37.73,16.89,37.73,37.73ZM82.21,385.08c0-18.76-15.21-33.97-33.97-33.97s-33.97,15.21-33.97,33.97,15.21,33.97,33.97,33.97,33.97-15.21,33.97-33.97Z"/>
          <path class="cls-4" d="M545.24,155.5c0,20.84-16.89,37.73-37.73,37.73s-37.73-16.89-37.73-37.73,16.89-37.73,37.73-37.73,37.73,16.89,37.73,37.73ZM541.39,155.49c0-18.76-15.21-33.97-33.97-33.97s-33.97,15.21-33.97,33.97,15.21,33.97,33.97,33.97,33.97-15.21,33.97-33.97Z"/>
          <path class="cls-4" d="M315.65,385.09c0,20.84-16.89,37.73-37.73,37.73s-37.73-16.89-37.73-37.73,16.89-37.73,37.73-37.73,37.73,16.89,37.73,37.73ZM311.8,385.08c0-18.76-15.21-33.97-33.97-33.97s-33.97,15.21-33.97,33.97,15.21,33.97,33.97,33.97,33.97-15.21,33.97-33.97Z"/>
          <path class="cls-4" d="M315.65,155.5c0,20.84-16.89,37.73-37.73,37.73s-37.73-16.89-37.73-37.73,16.89-37.73,37.73-37.73,37.73,16.89,37.73,37.73ZM311.8,155.49c0-18.76-15.21-33.97-33.97-33.97s-33.97,15.21-33.97,33.97,15.21,33.97,33.97,33.97,33.97-15.21,33.97-33.97Z"/>
          <path class="cls-4" d="M86.06,155.5c0,20.84-16.89,37.73-37.73,37.73s-37.73-16.89-37.73-37.73,16.89-37.73,37.73-37.73,37.73,16.89,37.73,37.73ZM82.21,155.49c0-18.76-15.21-33.97-33.97-33.97s-33.97,15.21-33.97,33.97,15.21,33.97,33.97,33.97,33.97-15.21,33.97-33.97Z"/>
          <path class="cls-4" d="M545.24,385.09c0,20.84-16.89,37.73-37.73,37.73s-37.73-16.89-37.73-37.73,16.89-37.73,37.73-37.73,37.73,16.89,37.73,37.73ZM541.39,385.08c0-18.76-15.21-33.97-33.97-33.97s-33.97,15.21-33.97,33.97,15.21,33.97,33.97,33.97,33.97-15.21,33.97-33.97Z"/>
          <path class="cls-4" d="M545.24,614.68c0,20.84-16.89,37.73-37.73,37.73s-37.73-16.89-37.73-37.73,16.89-37.73,37.73-37.73,37.73,16.89,37.73,37.73ZM541.39,614.67c0-18.76-15.21-33.97-33.97-33.97s-33.97,15.21-33.97,33.97,15.21,33.97,33.97,33.97,33.97-15.21,33.97-33.97Z"/>
          <path class="cls-4" d="M315.65,614.68c0,20.84-16.89,37.73-37.73,37.73s-37.73-16.89-37.73-37.73,16.89-37.73,37.73-37.73,37.73,16.89,37.73,37.73ZM311.8,614.67c0-18.76-15.21-33.97-33.97-33.97s-33.97,15.21-33.97,33.97,15.21,33.97,33.97,33.97,33.97-15.21,33.97-33.97Z"/>
          <path class="cls-4" d="M86.06,614.68c0,20.84-16.89,37.73-37.73,37.73s-37.73-16.89-37.73-37.73,16.89-37.73,37.73-37.73,37.73,16.89,37.73,37.73ZM82.21,614.67c0-18.76-15.21-33.97-33.97-33.97s-33.97,15.21-33.97,33.97,15.21,33.97,33.97,33.97,33.97-15.21,33.97-33.97Z"/>
          <path class="cls-4" d="M69.94,385.1c0,11.91-9.66,21.57-21.57,21.57s-21.57-9.66-21.57-21.57,9.66-21.57,21.57-21.57,21.57,9.66,21.57,21.57ZM62.17,385.13c0-7.62-6.18-13.8-13.8-13.8s-13.8,6.18-13.8,13.8,6.18,13.8,13.8,13.8,13.8-6.18,13.8-13.8Z"/>
          <path class="cls-4" d="M529.12,155.51c0,11.91-9.66,21.57-21.57,21.57s-21.57-9.66-21.57-21.57,9.66-21.57,21.57-21.57,21.57,9.66,21.57,21.57ZM521.35,155.54c0-7.62-6.18-13.8-13.8-13.8s-13.8,6.18-13.8,13.8,6.18,13.8,13.8,13.8,13.8-6.18,13.8-13.8Z"/>
          <path class="cls-4" d="M299.53,385.1c0,11.91-9.66,21.57-21.57,21.57s-21.57-9.66-21.57-21.57,9.66-21.57,21.57-21.57,21.57,9.66,21.57,21.57ZM291.76,385.13c0-7.62-6.18-13.8-13.8-13.8s-13.8,6.18-13.8,13.8,6.18,13.8,13.8,13.8,13.8-6.18,13.8-13.8Z"/>
          <path class="cls-4" d="M299.53,155.51c0,11.91-9.66,21.57-21.57,21.57s-21.57-9.66-21.57-21.57,9.66-21.57,21.57-21.57,21.57,9.66,21.57,21.57ZM291.76,155.54c0-7.62-6.18-13.8-13.8-13.8s-13.8,6.18-13.8,13.8,6.18,13.8,13.8,13.8,13.8-6.18,13.8-13.8Z"/>
          <path class="cls-4" d="M69.94,155.51c0,11.91-9.66,21.57-21.57,21.57s-21.57-9.66-21.57-21.57,9.66-21.57,21.57-21.57,21.57,9.66,21.57,21.57ZM62.17,155.54c0-7.62-6.18-13.8-13.8-13.8s-13.8,6.18-13.8,13.8,6.18,13.8,13.8,13.8,13.8-6.18,13.8-13.8Z"/>
          <path class="cls-4" d="M529.12,385.1c0,11.91-9.66,21.57-21.57,21.57s-21.57-9.66-21.57-21.57,9.66-21.57,21.57-21.57,21.57,9.66,21.57,21.57ZM521.35,385.13c0-7.62-6.18-13.8-13.8-13.8s-13.8,6.18-13.8,13.8,6.18,13.8,13.8,13.8,13.8-6.18,13.8-13.8Z"/>
          <path class="cls-4" d="M529.12,614.69c0,11.91-9.66,21.57-21.57,21.57s-21.57-9.66-21.57-21.57,9.66-21.57,21.57-21.57,21.57,9.66,21.57,21.57ZM521.35,614.72c0-7.62-6.18-13.8-13.8-13.8s-13.8,6.18-13.8,13.8,6.18,13.8,13.8,13.8,13.8-6.18,13.8-13.8Z"/>
          <path class="cls-4" d="M299.53,614.69c0,11.91-9.66,21.57-21.57,21.57s-21.57-9.66-21.57-21.57,9.66-21.57,21.57-21.57,21.57,9.66,21.57,21.57ZM291.76,614.72c0-7.62-6.18-13.8-13.8-13.8s-13.8,6.18-13.8,13.8,6.18,13.8,13.8,13.8,13.8-6.18,13.8-13.8Z"/>
          <path class="cls-4" d="M69.94,614.69c0,11.91-9.66,21.57-21.57,21.57s-21.57-9.66-21.57-21.57,9.66-21.57,21.57-21.57,21.57,9.66,21.57,21.57ZM62.17,614.72c0-7.62-6.18-13.8-13.8-13.8s-13.8,6.18-13.8,13.8,6.18,13.8,13.8,13.8,13.8-6.18,13.8-13.8Z"/>
        </g>
      </g>
    </g>
    <g>
      <path class="cls-4" d="M236.17,347.18c-.57-6.19-3.16-30.79-22.14-45.75-5.1-4.02-14.02-9.09-66.03-10.79-15.63-.51-31.38.49-47.01.04l-.04,51.88c4.04,55.67-.11,87.94,66.57,85.98,44.25-1.3,88.57-8.17,126.57-31.96,2.75-1.72,7.65-7.34,10.21-8.08,8.08-2.34,12.35,2.83,13.69,10.17,2.4,13.1,4.99,40.31,5.01,53.58.01,9.12-4.34,12.98-8.53,15.92-13.76,9.67-37.15-8.23-61.94-18.32-37.6-15.3-97.11-20.24-125.25,7.53-29.69,29.3-15.38,86.04-12.87,95.49,6.41,1.04,15.52,2.26,26.5,2.78,22.14,1.05,39.2,1.86,51.59-4.57,27.6-14.32,27.48-62.13,27.4-67.72-35.89-.49-52.01,9.52-59.95,19.64-7.66,9.76-13.58,27.01-21.68,26.23-2.11-.2-3.99-1.64-4.96-3.23-4.97-8.11,9.53-26.82,18.77-35.53,30.5-28.78,80.11-20.73,94.32-17.75,6.8,1.43,46.81,13.94,56.88,33.35,7.54,14.54-17.21,29.53-28.04,35.06-4.2,2.14-20.79,7.68-22.39,9.31-2.09,2.13-2.6,8.52-.02,8.52h158.53c6.74-9-4.4-12.19-9.78-17.04-10.82-9.76-23.16-23.93-28-37.85-4.11-11.83-2.26-16.35,8.66-21.78,24.66-12.24,66.17-12.24,90.56.59,10.87,5.72,31.89,24.47,34.07,36.76,1.14,6.44-4.36,9.08-9.92,7.41-1.9-.57-10.81-16.26-14.24-19.94-16.41-17.58-42.64-23.71-65.86-20.08,2.59,30.47-4.76,60.23,32.85,67.73,26.15,5.22,53.99,2.12,80.55,2.99-.61-17.64.77-35.47.04-53.1-.85-20.57-.59-49-22.59-57.9-17.69-7.15-69.61-3.68-90.11-1.05-14.35,1.84-38.12,10.45-51.3,8.31-8.91-1.44-10.8-13.78-11.5-21.41-2.07-22.84,17.14-11.24,31.11-9.17,24.69,3.67,48.36,2.03,72.95,1.33,20.9-.59,60.34,2.49,76.13-12.89,12.82-12.49,14.1-42.35,14.82-59.57.82-19.66-.72-39.54-.04-59.2-19.59,1.6-39.64,0-59.2,1.17-10.83.65-28.38,3.43-37.96,8.38-29.15,15.06-26.41,61.28-28.44,89.22,25.49-3.61,49.95-16.94,65.82-37.21,2.94-3.76,11.65-20.31,12.92-21.22,4.27-3.04,10.2-.69,11.01,4.74,1.62,10.78-26.23,40.12-35.01,46.86-20.94,16.08-37.09,21.9-63.95,20.3-8.9-.53-30.63-1.54-31.12-12.87-.34-7.93,14.03-25.85,18.58-33.92,29.23-51.88,36.78-127.52,85.24-162.31,8.26-5.93,41.71-26.91,31.98-1.85-35.19,14.09-61.55,42.68-68.64,80.41,18.61-.4,39.12,1.18,57.36-2.99,23.29-5.32,29.07-23.77,31.64-45.18,2.53-21.09.35-42.69,2.28-63.83-6.58-.56-16.98-1.28-29.76-1.44-38.23-.5-61.38-.52-76.79,13.48-7.94,7.21-11.98,14.89-14.86,27.78-7.69,34.42,3.51,77.64-15.98,108.4-13.29,20.98-19.06-6.12-20.8-17.47-5.19-33.73-.46-67.53-2.62-101.04-2.1-32.62-8.5-48.07-43.29-50.61-26.63-1.94-81.77,2.35-81.77,2.35.29,19.53-.53,41.01.64,60.49,1.75,29.24,6.52,51.29,39.68,54.21h45.12c.12-11.96-1.61-34.24-16.38-50.76-11.34-12.69-21.83-17.76-21.83-17.76-10.44-5.05-21.58-6.51-22.28-12.24-.18-1.49.37-3.05,1.28-4.06,4.74-5.26,21.32,2.26,24.44,3.75,61.76,29.45,43.34,98.81,58.21,151.54,2.72,9.66,11.32,22.65,6.29,32.42-.44.85-10.19,11.79-11.44,12.95-4.96,4.57-13.1,6.35-15.86-1.19-3.13-8.57-4.61-20.77-7.58-30.22-14.96-47.52-42.07-80.65-93.78-87.92-16.12-2.27-28.43-.67-44.32-6.89-19.91-7.8-49.73-34.21-58.36-53.82-3.15-7.15,1.2-14.04,8.32-10.77,3,1.38,13.86,19.35,17.69,23.78,14.27,16.49,33.59,29.57,55.49,32.91,1.26-10.66,1.77-21.58,1.28-32.37-1.19-25.99-3.87-46.79-32.02-54.56-18.75-5.17-59.47-4.75-79.65-3.37-2.66.18-5.18.84-7.75,1.4-.55,9.49.25,19.08-.08,28.58-.72,20.37-3.8,51.07,4.23,70.05,10.93,25.84,49.88,22.23,73.14,23.2,39.04,1.62,76.49-4.72,104.3,28.62,14.04,16.83,19.35,28.58,9.15,49.45-9.72,19.88-42.06,49.9-85.25,47.37,0,0-43.43-2.54-79.41-57.01-1.4-2.12-4.82-7.29-3-11.65,1.02-2.45,3.58-4.33,5.83-4.66,6.84-1.01,12.07,12.04,20.92,24.11,1.64,2.23,26.54,35.32,59.25,36.68,7.63.32,13.87-1.17,17.61-2.31,3.25-7.73,7.4-20.89,5.9-37.05Z"/>
      <text class="cls-5" transform="translate(566.18 212.19)"><tspan x="0" y="0">®</tspan></text>
    </g>
  </g>
  <g>
    <g>
      <path class="cls-3" d="M730.9,174.96h97.96v311.46h196.46v63.89h-294.42V174.96Z"/>
      <path class="cls-3" d="M1061.25,248.43c-9.77-7.8-14.64-18.81-14.64-33.01s4.87-25.2,14.64-33.01c9.76-7.8,23.51-11.71,41.26-11.71s31.85,3.82,41.26,11.45c9.4,7.64,14.11,18.73,14.11,33.28s-4.71,25.65-14.11,33.28c-9.41,7.64-23.16,11.45-41.26,11.45s-31.5-3.9-41.26-11.71ZM1053.54,275.05h97.96v275.26h-97.96v-275.26Z"/>
      <path class="cls-3" d="M1490.64,627.77c-13.49,21.83-32.21,38.42-56.17,49.78-23.96,11.36-51.38,17.04-82.26,17.04-43.31,0-78.18-10.91-104.62-32.74-26.45-21.83-42.51-52.98-48.18-93.44h85.19c2.48,19.17,9.58,33.45,21.3,42.86,11.71,9.4,26.97,14.11,45.79,14.11,20.58,0,36.2-6.12,46.85-18.37,10.65-12.25,16.15-31.33,16.5-57.23v-103.82c-1.78,15.97-7.01,32.3-15.71,48.98-8.7,16.69-21.39,30.88-38.07,42.59-16.69,11.71-37.27,17.57-61.76,17.57s-44.81-5.23-63.09-15.71c-18.29-10.46-32.39-24.76-42.33-42.86-9.94-18.1-14.91-38.15-14.91-60.16v-161.32h97.96v147.48c0,22.36,4.08,39.49,12.24,51.38,8.16,11.9,18.98,17.84,32.48,17.84,16.32,0,31.41-7.72,45.26-23.16,13.84-15.44,24.93-35.22,33.28-59.36,8.34-24.13,12.51-48.27,12.51-72.41v-61.76h97.96v274.72c0,30.16-6.75,56.17-20.23,78Z"/>
    </g>
    <path class="cls-3" d="M1590.73,403.89c37.98-14.55,90.51-21.83,157.59-21.83h29.82c.71-5.67,1.06-9.58,1.06-11.71,0-14.55-4.08-26-12.24-34.34-8.17-8.34-18.29-12.51-30.35-12.51-8.52,0-17.04,2.4-25.56,7.19-8.52,4.79-15.8,11.98-21.83,21.56h-99.56c11.71-31.23,30.35-52.26,55.9-63.09,25.56-10.82,56.97-16.24,94.24-16.24,52.53,0,89.79,11.27,111.81,33.81,22,22.54,33.01,57.23,33.01,104.09v139.49h-97.96v-74.01c-12.78,25.56-31.77,44.91-56.97,58.03-25.21,13.14-52,19.7-80.39,19.7-20.59,0-39.66-3.19-57.23-9.58-17.57-6.39-31.68-15.79-42.33-28.22-10.65-12.42-15.97-27.15-15.97-44.19,0-30.88,18.98-53.59,56.97-68.15ZM1721.17,440.63c-30.53,0-53.07,1.96-67.62,5.86-14.56,3.91-21.83,11.01-21.83,21.3,0,8.52,4.79,15.44,14.37,20.76,9.58,5.32,21.47,7.99,35.67,7.99,18.81,0,37.27-4.53,55.37-13.58,18.1-9.05,32.65-22.8,43.66-41.26l-18.1-.53c-9.94-.35-23.78-.53-41.53-.53Z"/>
    <g>
      <path class="cls-3" d="M1912.01,174.96h97.96v375.35h-97.96V174.96Z"/>
      <path class="cls-3" d="M2045.91,248.43c-9.77-7.8-14.64-18.81-14.64-33.01s4.87-25.2,14.64-33.01c9.76-7.8,23.51-11.71,41.26-11.71s31.85,3.82,41.26,11.45c9.4,7.64,14.11,18.73,14.11,33.28s-4.71,25.65-14.11,33.28c-9.41,7.64-23.16,11.45-41.26,11.45s-31.5-3.9-41.26-11.71ZM2038.19,275.05h97.96v275.26h-97.96v-275.26Z"/>
    </g>
  </g>
</svg>