<?xml version="1.0" encoding="UTF-8"?>
<svg id="Layer_2" data-name="Layer 2" xmlns="http://www.w3.org/2000/svg" viewBox="0 0 527.26 417.56">
  <defs>
    <style>
      .cls-1 {
        fill: #fff;
      }

      .cls-2 {
        isolation: isolate;
      }
    </style>
  </defs>
  <g id="Layer_2-2" data-name="Layer 2">
    <g>
      <path class="cls-1" d="M135.22,205.78c-.57-6.19-3.16-30.79-22.14-45.75-5.1-4.02-14.02-9.09-66.03-10.79-15.63-.51-31.38.49-47.01.04l-.04,51.88c4.04,55.67-.11,87.94,66.57,85.98,44.25-1.3,88.57-8.17,126.57-31.96,2.75-1.72,7.65-7.34,10.21-8.08,8.08-2.34,12.35,2.83,13.69,10.17,2.4,13.1,4.99,40.31,5.01,53.58,0,9.12-4.34,12.98-8.53,15.92-13.76,9.67-37.15-8.23-61.94-18.32-37.6-15.3-97.11-20.24-125.25,7.53-29.69,29.3-15.38,86.04-12.87,95.49,6.41,1.04,15.52,2.26,26.5,2.78,22.14,1.05,39.2,1.86,51.59-4.57,27.6-14.32,27.48-62.13,27.4-67.72-35.89-.49-52.01,9.52-59.95,19.64-7.66,9.76-13.58,27.01-21.68,26.23-2.11-.2-3.99-1.64-4.96-3.23-4.97-8.11,9.53-26.82,18.77-35.53,30.5-28.78,80.11-20.73,94.32-17.75,6.8,1.43,46.81,13.94,56.88,33.35,7.54,14.54-17.21,29.53-28.04,35.06-4.2,2.14-20.79,7.68-22.39,9.31-2.09,2.13-2.6,8.52-.02,8.52h158.53c6.74-9-4.4-12.19-9.78-17.04-10.82-9.76-23.16-23.93-28-37.85-4.11-11.83-2.26-16.35,8.66-21.78,24.66-12.24,66.17-12.24,90.56.59,10.87,5.72,31.89,24.47,34.07,36.76,1.14,6.44-4.36,9.08-9.92,7.41-1.9-.57-10.81-16.26-14.24-19.94-16.41-17.58-42.64-23.71-65.86-20.08,2.59,30.47-4.76,60.23,32.85,67.73,26.15,5.22,53.99,2.12,80.55,2.99-.61-17.64.77-35.47.04-53.1-.85-20.57-.59-49-22.59-57.9-17.69-7.15-69.61-3.68-90.11-1.05-14.35,1.84-38.12,10.45-51.3,8.31-8.91-1.44-10.8-13.78-11.5-21.41-2.07-22.84,17.14-11.24,31.11-9.17,24.69,3.67,48.36,2.03,72.95,1.33,20.9-.59,60.34,2.49,76.13-12.89,12.82-12.49,14.1-42.35,14.82-59.57.82-19.66-.72-39.54-.04-59.2-19.59,1.6-39.64,0-59.2,1.17-10.83.65-28.38,3.43-37.96,8.38-29.15,15.06-26.41,61.28-28.44,89.22,25.49-3.61,49.95-16.94,65.82-37.21,2.94-3.76,11.65-20.31,12.92-21.22,4.27-3.04,10.2-.69,11.01,4.74,1.62,10.78-26.23,40.12-35.01,46.86-20.94,16.08-37.09,21.9-63.95,20.3-8.9-.53-30.63-1.54-31.12-12.87-.34-7.93,14.03-25.85,18.58-33.92,29.23-51.88,36.78-127.52,85.24-162.31,8.26-5.93,41.71-26.91,31.98-1.85-35.19,14.09-61.55,42.68-68.64,80.41,18.61-.4,39.12,1.18,57.36-2.99,23.29-5.32,29.07-23.77,31.64-45.18,2.53-21.09.35-42.69,2.28-63.83-6.58-.56-16.98-1.28-29.76-1.44-38.23-.5-61.38-.52-76.79,13.48-7.94,7.21-11.98,14.89-14.86,27.78-7.69,34.42,3.51,77.64-15.98,108.4-13.29,20.98-19.06-6.12-20.8-17.47-5.19-33.73-.46-67.53-2.62-101.04-2.1-32.62-8.5-48.07-43.29-50.61-26.63-1.94-81.77,2.35-81.77,2.35.29,19.53-.53,41.01.64,60.49,1.75,29.24,6.52,51.29,39.68,54.21h45.12c.12-11.96-1.61-34.24-16.38-50.76-11.34-12.69-21.83-17.76-21.83-17.76-10.44-5.05-21.58-6.51-22.28-12.24-.18-1.49.37-3.05,1.28-4.06,4.74-5.26,21.32,2.26,24.44,3.75,61.76,29.45,43.34,98.81,58.21,151.54,2.72,9.66,11.32,22.65,6.29,32.42-.44.85-10.19,11.79-11.44,12.95-4.96,4.57-13.1,6.35-15.86-1.19-3.13-8.57-4.61-20.77-7.58-30.22-14.96-47.52-42.07-80.65-93.78-87.92-16.12-2.27-28.43-.67-44.32-6.89-19.91-7.8-49.73-34.21-58.36-53.82-3.15-7.15,1.2-14.04,8.32-10.77,3,1.38,13.86,19.35,17.69,23.78,14.27,16.49,33.59,29.57,55.49,32.91,1.26-10.66,1.77-21.58,1.28-32.37-1.19-25.99-3.87-46.79-32.02-54.56-18.75-5.17-59.47-4.75-79.65-3.37-2.66.18-5.18.84-7.75,1.4-.55,9.49.25,19.08-.08,28.58-.72,20.37-3.8,51.07,4.23,70.05,10.93,25.84,49.88,22.23,73.14,23.2,39.04,1.62,76.49-4.72,104.3,28.62,14.04,16.83,19.35,28.58,9.15,49.45-9.72,19.88-42.06,49.9-85.25,47.37,0,0-43.43-2.54-79.41-57.01-1.4-2.12-4.82-7.29-3-11.65,1.02-2.45,3.58-4.33,5.83-4.66,6.84-1.01,12.07,12.04,20.92,24.11,1.64,2.23,26.54,35.32,59.25,36.68,7.63.32,13.87-1.17,17.61-2.31,3.25-7.73,7.4-20.89,5.9-37.05v.03Z"/>
      <g class="cls-2">
        <path class="cls-1" d="M497.82,12.59c4.95,0,9.77,1.27,14.49,3.81,4.71,2.54,8.38,6.17,11.01,10.89,2.63,4.72,3.94,9.65,3.94,14.78s-1.3,9.96-3.88,14.64c-2.59,4.69-6.22,8.32-10.89,10.91-4.67,2.59-9.56,3.88-14.66,3.88s-9.99-1.29-14.66-3.88-8.31-6.23-10.91-10.91c-2.6-4.68-3.9-9.57-3.9-14.64s1.32-10.05,3.96-14.78c2.64-4.72,6.32-8.35,11.03-10.89s9.54-3.81,14.48-3.81ZM497.82,17.47c-4.14,0-8.17,1.06-12.08,3.18-3.92,2.12-6.98,5.15-9.19,9.1s-3.32,8.05-3.32,12.32,1.09,8.31,3.26,12.2c2.17,3.89,5.21,6.92,9.12,9.1,3.9,2.17,7.98,3.26,12.22,3.26s8.32-1.09,12.22-3.26c3.9-2.17,6.94-5.21,9.1-9.1,2.16-3.89,3.24-7.96,3.24-12.2s-1.1-8.38-3.3-12.32c-2.2-3.94-5.27-6.98-9.2-9.1s-7.95-3.18-12.06-3.18ZM484.9,58.35v-31.7h10.89c3.72,0,6.42.29,8.08.88,1.67.59,2.99,1.61,3.98,3.07s1.48,3.01,1.48,4.65c0,2.32-.83,4.33-2.48,6.05-1.65,1.72-3.85,2.68-6.58,2.89,1.12.47,2.02,1.03,2.69,1.68,1.28,1.25,2.84,3.34,4.69,6.29l3.87,6.21h-6.25l-2.81-5c-2.21-3.93-4-6.39-5.35-7.38-.94-.73-2.3-1.09-4.1-1.09h-3.01v13.47h-5.11ZM490.02,40.51h6.21c2.97,0,4.99-.44,6.07-1.33,1.08-.88,1.62-2.06,1.62-3.51,0-.94-.26-1.78-.78-2.52-.52-.74-1.24-1.29-2.17-1.66-.92-.36-2.63-.55-5.13-.55h-5.82v9.57Z"/>
      </g>
    </g>
  </g>
</svg>