<?xml version="1.0" encoding="UTF-8"?>
<svg id="Layer_2" data-name="Layer 2" xmlns="http://www.w3.org/2000/svg" viewBox="0 0 1294.63 504.92">
  <defs>
    <style>
      .cls-1, .cls-2 {
        fill: #fff;
      }

      .cls-2 {
        font-family: Poppins-ExtraLight, Poppins;
        font-size: 168.35px;
        font-weight: 200;
      }
    </style>
  </defs>
  <g id="Layer_1-2" data-name="Layer 1">
    <g>
      <text class="cls-2" transform="translate(880.08 411.82) scale(1.04 1)"><tspan x="0" y="0">Suite</tspan></text>
      <g>
        <g>
          <path class="cls-1" d="M325.35,14.76h66.61v211.78h133.59v43.44h-200.2V14.76Z"/>
          <path class="cls-1" d="M549.99,64.72c-6.64-5.31-9.96-12.79-9.96-22.45s3.31-17.13,9.96-22.45c6.64-5.31,15.99-7.96,28.06-7.96s21.66,2.6,28.06,7.78c6.39,5.19,9.59,12.73,9.59,22.63s-3.2,17.44-9.59,22.63c-6.4,5.19-15.75,7.78-28.06,7.78s-21.42-2.65-28.06-7.96ZM544.74,82.82h66.61v187.17h-66.61V82.82Z"/>
          <path class="cls-1" d="M841.96,322.66c-9.17,14.84-21.9,26.12-38.19,33.85-16.29,7.72-34.94,11.58-55.93,11.58-29.45,0-53.16-7.42-71.14-22.26-17.98-14.84-28.91-36.02-32.76-63.54h57.92c1.69,13.03,6.52,22.75,14.48,29.14,7.96,6.39,18.34,9.59,31.13,9.59,14,0,24.62-4.16,31.86-12.49,7.24-8.33,10.98-21.3,11.22-38.92v-70.59c-1.21,10.86-4.77,21.96-10.68,33.31-5.92,11.35-14.54,21-25.88,28.96-11.35,7.96-25.34,11.95-41.99,11.95s-30.47-3.56-42.9-10.68c-12.43-7.12-22.03-16.83-28.78-29.14-6.76-12.31-10.14-25.94-10.14-40.91v-109.69h66.61v100.28c0,15.21,2.77,26.85,8.33,34.94,5.55,8.09,12.91,12.13,22.08,12.13,11.1,0,21.36-5.25,30.77-15.75,9.41-10.5,16.95-23.95,22.63-40.37,5.67-16.41,8.51-32.82,8.51-49.23v-42h66.61v186.8c0,20.51-4.59,38.19-13.76,53.04Z"/>
        </g>
        <path class="cls-1" d="M910.01,170.43c25.82-9.89,61.54-14.84,107.16-14.84h20.27c.48-3.86.72-6.52.72-7.96,0-9.89-2.78-17.68-8.33-23.35-5.55-5.67-12.43-8.51-20.64-8.51-5.79,0-11.58,1.63-17.38,4.89-5.79,3.26-10.74,8.15-14.84,14.66h-67.7c7.96-21.23,20.63-35.54,38.01-42.9,17.38-7.36,38.74-11.04,64.08-11.04,35.72,0,61.06,7.66,76.02,22.99,14.96,15.33,22.45,38.92,22.45,70.78v94.85h-66.61v-50.32c-8.69,17.38-21.6,30.53-38.74,39.46-17.14,8.93-35.36,13.39-54.67,13.39-14,0-26.97-2.17-38.92-6.52-11.95-4.34-21.54-10.74-28.78-19.19-7.24-8.45-10.86-18.46-10.86-30.05,0-21,12.91-36.44,38.74-46.34ZM998.71,195.41c-20.76,0-36.08,1.33-45.98,3.98-9.9,2.66-14.84,7.48-14.84,14.48,0,5.79,3.26,10.5,9.77,14.12,6.52,3.62,14.6,5.43,24.26,5.43,12.79,0,25.34-3.08,37.65-9.23s22.2-15.5,29.69-28.06l-12.31-.36c-6.76-.24-16.17-.36-28.24-.36Z"/>
        <g>
          <path class="cls-1" d="M1128.48,14.76h66.61v255.23h-66.61V14.76Z"/>
          <path class="cls-1" d="M1219.52,64.72c-6.64-5.31-9.96-12.79-9.96-22.45s3.31-17.13,9.96-22.45c6.64-5.31,15.99-7.96,28.06-7.96s21.66,2.6,28.06,7.78c6.39,5.19,9.59,12.73,9.59,22.63s-3.2,17.44-9.59,22.63c-6.4,5.19-15.75,7.78-28.06,7.78s-21.42-2.65-28.06-7.96ZM1214.27,82.82h66.61v187.17h-66.61V82.82Z"/>
        </g>
      </g>
      <path class="cls-1" d="M86.85,132.15c-.37-3.98-2.03-19.78-14.22-29.38-3.28-2.58-9-5.84-42.41-6.93-10.04-.33-20.16.31-30.19.03l-.03,33.32c2.6,35.76-.07,56.48,42.76,55.22,28.42-.84,56.89-5.25,81.3-20.53,1.76-1.1,4.92-4.72,6.56-5.19,5.19-1.5,7.93,1.82,8.8,6.54,1.54,8.41,3.21,25.89,3.22,34.41,0,5.86-2.79,8.33-5.48,10.23-8.84,6.21-23.86-5.28-39.79-11.76-24.15-9.83-62.37-13-80.45,4.83-19.07,18.82-9.88,55.26-8.27,61.33,4.11.67,9.97,1.45,17.02,1.78,14.22.67,25.18,1.19,33.14-2.94,17.73-9.2,17.65-39.91,17.6-43.5-23.05-.32-33.41,6.12-38.51,12.61-4.92,6.27-8.72,17.35-13.93,16.85-1.36-.13-2.56-1.06-3.19-2.08-3.19-5.21,6.12-17.23,12.05-22.82,19.59-18.49,51.45-13.31,60.58-11.4,4.37.92,30.07,8.95,36.54,21.42,4.85,9.34-11.05,18.97-18.01,22.52-2.7,1.38-13.35,4.93-14.38,5.98-1.35,1.37-1.67,5.47-.01,5.47h101.82c4.33-5.78-2.83-7.83-6.28-10.95-6.95-6.27-14.88-15.37-17.98-24.31-2.64-7.6-1.45-10.5,5.56-13.99,15.84-7.86,42.5-7.86,58.17.38,6.98,3.67,20.48,15.72,21.88,23.61.73,4.13-2.8,5.83-6.37,4.76-1.22-.37-6.94-10.44-9.15-12.8-10.54-11.29-27.39-15.23-42.3-12.9,1.66,19.57-3.06,38.68,21.1,43.5,16.8,3.35,34.68,1.36,51.74,1.92-.39-11.33.5-22.78.03-34.11-.55-13.21-.38-31.47-14.51-37.19-11.36-4.59-44.71-2.36-57.88-.67-9.21,1.18-24.48,6.71-32.95,5.34-5.72-.93-6.94-8.85-7.38-13.75-1.33-14.67,11.01-7.22,19.98-5.89,15.86,2.36,31.06,1.3,46.86.86,13.42-.38,38.75,1.6,48.9-8.28,8.24-8.02,9.06-27.2,9.52-38.26.52-12.62-.46-25.39-.03-38.02-12.58,1.03-25.46,0-38.02.75-6.96.42-18.23,2.2-24.38,5.38-18.73,9.67-16.96,39.36-18.27,57.31,16.37-2.32,32.09-10.88,42.28-23.9,1.89-2.41,7.48-13.04,8.3-13.63,2.75-1.95,6.55-.44,7.07,3.04,1.04,6.92-16.85,25.77-22.49,30.1-13.45,10.33-23.82,14.07-41.07,13.04-5.72-.34-19.67-.99-19.99-8.27-.22-5.1,9.01-16.6,11.93-21.78,18.77-33.32,23.62-81.9,54.75-104.25,5.3-3.81,26.79-17.29,20.54-1.19-22.6,9.05-39.53,27.41-44.09,51.65,11.96-.26,25.13.76,36.84-1.92,14.96-3.42,18.67-15.27,20.32-29.02,1.63-13.55.23-27.42,1.47-41-4.23-.36-10.9-.82-19.11-.93-24.55-.32-39.43-.33-49.32,8.66-5.1,4.63-7.7,9.56-9.55,17.84-4.94,22.11,2.25,49.87-10.26,69.63-8.54,13.48-12.24-3.93-13.36-11.22-3.33-21.66-.29-43.38-1.68-64.9-1.35-20.95-5.46-30.87-27.81-32.5-17.11-1.25-52.52,1.51-52.52,1.51.19,12.54-.34,26.34.41,38.85,1.13,18.78,4.19,32.95,25.49,34.82h28.98c.08-7.68-1.03-21.99-10.52-32.6-7.29-8.15-14.02-11.41-14.02-11.41-6.71-3.25-13.86-4.18-14.31-7.86-.12-.96.24-1.96.82-2.61,3.04-3.38,13.69,1.45,15.7,2.41,39.67,18.92,27.84,63.46,37.39,97.33,1.75,6.2,7.27,14.55,4.04,20.83-.28.54-6.54,7.57-7.35,8.32-3.18,2.94-8.42,4.08-10.19-.76-2.01-5.5-2.96-13.34-4.87-19.41-9.61-30.52-27.02-51.8-60.23-56.47-10.35-1.46-18.26-.43-28.47-4.43-12.79-5.01-31.94-21.97-37.48-34.57-2.02-4.59.77-9.02,5.34-6.92,1.93.88,8.9,12.43,11.36,15.27,9.16,10.59,21.58,18.99,35.64,21.14.81-6.85,1.14-13.86.82-20.79-.76-16.69-2.48-30.05-20.57-35.04-12.04-3.32-38.2-3.05-51.16-2.16-1.71.12-3.33.54-4.98.9-.36,6.09.16,12.25-.05,18.36-.46,13.08-2.44,32.8,2.72,44.99,7.02,16.6,32.04,14.28,46.98,14.9,25.08,1.04,49.13-3.03,66.99,18.38,9.02,10.81,12.43,18.36,5.88,31.76-6.24,12.77-27.01,32.05-54.75,30.43,0,0-27.89-1.63-51-36.62-.9-1.36-3.09-4.69-1.93-7.48.66-1.58,2.3-2.78,3.74-2.99,4.39-.65,7.75,7.73,13.44,15.49,1.05,1.43,17.05,22.68,38.05,23.56,4.9.2,8.91-.75,11.31-1.48,2.09-4.97,4.75-13.42,3.79-23.8Z"/>
    </g>
  </g>
</svg>